<svg id="Layer_1" data-name="Layer 1" xmlns="http://www.w3.org/2000/svg" viewBox="0 0 299.29 152.1"><defs><style>.cls-1{fill:#303030;}</style></defs><title>illustrator-svg-map</title><path class="cls-1" d="M286.27,5.16c.06,2.53.13,4.93.18,7.33.06,2.91.13,5.83.17,8.75.05,3.5.05,7,.1,10.5,0,1.08.1,2.16.12,3.24s-.06,1.92,0,2.87a3.35,3.35,0,0,0,1.19,2.5,5.56,5.56,0,0,1,1.17,1.73c.19.38.25.67.78.48.35-.13.62.1.81.44a4.62,4.62,0,0,0,1.51,2.06,3.18,3.18,0,0,0,.89.43,2,2,0,0,1,1.32,2.95,2.14,2.14,0,0,0-.44,1.73c.05.16-.05.36-.1.64a3,3,0,0,1,2.09,1.48,1.66,1.66,0,0,0,1.12.74,1.29,1.29,0,0,1,1,1.19c.07.29,0,.62,0,.92a.86.86,0,0,0,.3.59,2.13,2.13,0,0,1,1.19,2.15.66.66,0,0,0,.66.8,4.65,4.65,0,0,1,1,.26,4.27,4.27,0,0,1,.75.55c-.29.22-.44.41-.62.46a7.36,7.36,0,0,0-3.57,2.23c-1,1.11-2.1,2.1-3.18,3.12a38.87,38.87,0,0,1-3,2.63c-1.35,1-2.8,1.91-4.19,2.88-.81.57-1.57,1.23-2.41,1.75-1.2.76-2.47,1.4-3.68,2.14-.87.54-1.81,1-2.68,1.46a26.67,26.67,0,0,0-3.25,2.49c-.24.19-.44.44-.68.63a2.51,2.51,0,0,1-2.65.52,7.09,7.09,0,0,0-3.66-.38c-.93.11-1.9-.07-2.83,0-1.69.19-3.37.48-5.05.76a12.19,12.19,0,0,0-2,.49c-1,.35-2,.76-3.06,1.14s-2,.73-3,1.14a20.89,20.89,0,0,0-3.73,1.85A9.33,9.33,0,0,1,247,86.05a8.27,8.27,0,0,0-2.18,1.26A16.91,16.91,0,0,1,242,88.73a2,2,0,0,1-.73.16,7.19,7.19,0,0,0-3.83,1.7c-.87.69-1.73,1.4-2.59,2.1-1.26,1-2.54,2.06-3.77,3.15A6.48,6.48,0,0,1,229.26,97a28.5,28.5,0,0,0-2.64,1.35,7.64,7.64,0,0,0-2.83,3l.72.67c0,.34-.14.77-.18,1.19a1.08,1.08,0,0,1-.63.95.77.77,0,0,0-.47,1,.34.34,0,0,1,0,.1c0,1.1-.55,1.49-1.6,1a1.5,1.5,0,0,0-.72,1c-.24.8-.62.88-1.28.37a2.6,2.6,0,0,0-.63-.35,4.6,4.6,0,0,1-1.24-.61,5.85,5.85,0,0,0-.92.41.69.69,0,0,0-.35.94,1,1,0,0,1,.06.62c-.11.28-.28.63-.51.71a.89.89,0,0,1-.81-.24,2.19,2.19,0,0,0-1.14-.87c-.2-.07-.32-.35-.47-.53a9.46,9.46,0,0,0-3.08.92,30,30,0,0,0-2.9,1,10.09,10.09,0,0,1-2.29.69,8.61,8.61,0,0,0-4.44,2.55,19.48,19.48,0,0,1-1.73,1.39c-.76.58-1.54,1.14-2.32,1.7-.35.25-.74.43-1.08.69-.91.68-1.83,1.36-2.71,2.08q-2,1.68-4,3.42c-.58.51-1.1,1.07-1.65,1.61-.13.13-.25.36-.38.37-.65,0-1.25.32-1.9.34-1.11,0-2.22.08-3.32.22s-2.07.16-3.11.2c-.84,0-1.7.09-2.13.93a1.06,1.06,0,0,1-.26,0,8.12,8.12,0,0,0-4-.28c-.78,0-1.56.06-2.33.15a2.45,2.45,0,0,0-1.73,1.23,6.93,6.93,0,0,1,1.08.5c.6.43.65.9.09,1.36A1.16,1.16,0,0,0,169,130c.19.88-.19,1.17-1.08.94-.5-.13-.76,0-1.12.58-.17.27-.37.53-.63.9-.3-.32-.48-.55-.69-.75a4.58,4.58,0,0,1-1.26-2.23,1.58,1.58,0,0,0-.6-.69.78.78,0,0,0-1.19.25,6.75,6.75,0,0,1-1.6,2.13,7.34,7.34,0,0,0-1.27,2.13c-.42.89-.79,1.8-1.19,2.7a5.83,5.83,0,0,1-.39.62,4.2,4.2,0,0,0-1,2.33,1.58,1.58,0,0,1-.34.75c-.72,1.2-1.45,2.37-2.17,3.57a1,1,0,0,0,0,1.15.84.84,0,0,1-.06,1.09,7.82,7.82,0,0,0-.79,1.45c-.42.91-.9,1-1.82.46-.23-.47.56-.87.08-1.41-.4.38-.83.68-.85,1.28a.35.35,0,0,1-.12.24,8.33,8.33,0,0,1-1.68,1,4.63,4.63,0,0,0-2.85,2.07l-.61,1c-.38.65-.69.74-1.37.41s-.76-.37-1.14.36c-.16.3-.36.57-.58.92-.33-.09-.63-.15-.9-.25-.8-.31-1.19-.2-1.63.5-.14.24-.29.47-.45.75a1,1,0,0,1-.47,1.58c-.19.1-.2.54-.4.7a1.38,1.38,0,0,1-.87.39.65.65,0,0,1-.57-.82,3.29,3.29,0,0,1,.3-1,2,2,0,0,0,.31-1.32,2,2,0,0,1,.62-2.09,1,1,0,0,0,.32-1.39c-.13-.2,0-.73.24-1a4.88,4.88,0,0,1,.94-.87,8.48,8.48,0,0,1,1-.85,1.3,1.3,0,0,1,.81-.26c.36.05.44.4.38.74a1.7,1.7,0,0,0,.46,1.31.85.85,0,0,0,.23,0c1.1-.58,1.14-1,.2-1.81a2,2,0,0,1,.05-2.48.78.78,0,0,1,.59-.15,2.35,2.35,0,0,0,1.85-.45,3.22,3.22,0,0,1,1.81-.58,15.37,15.37,0,0,0,2.17-.42c.85-.13,1,0,1.19.76,0,.11.07.22.11.34.93-.46,1-.65.9-1.47-.08-.52.07-1,.52-1a3,3,0,0,0,2.19-1.89c.61-1.17,1.19-2.36,1.83-3.52.43-.75.47-1.22-.62-1.75a7.32,7.32,0,0,0-.8-.23,3.07,3.07,0,0,1-.73-.35,1.19,1.19,0,0,0-1.46-.06c-1.13.81-2.5,1.27-3.45,2.36a3.23,3.23,0,0,1-.93.49c.1.2.15.33.22.46.36.65.17,1.1-.56,1.16a1.88,1.88,0,0,1-1-.23,2,2,0,0,0-2.13,0c-1,.56-2,1.19-3,1.84a6.63,6.63,0,0,0-1,.78c-.38.37-.58.41-.92,0a10.84,10.84,0,0,1-.69-1c-.07-.11-.08-.26-.17-.33-.85-.73-.92-1.78-1.17-2.76s-.61-2.21-.86-3.33-.43-2.18-.66-3.39a5.27,5.27,0,0,0-1,0c-2.11.38-4.2.8-6.3,1.2-1.53.28-3.06.56-4.58.81a2.32,2.32,0,0,1-.83,0l-7.57-1.24a6.75,6.75,0,0,0-.75,0c-.3,1.12.24,2,.52,2.93a.77.77,0,0,0,.88.53c.4,0,.8,0,1.2,0a.57.57,0,0,1,.59.59,6.11,6.11,0,0,1,0,.74c0,.68-.08.75-.81.87-.15,0-.29.08-.53.15l.28,1.09a1.08,1.08,0,0,1,1.21.85,1.89,1.89,0,0,0,1.08,1.27,1.38,1.38,0,0,1,1,1.25c0,.17.19.36.32.5a5.13,5.13,0,0,1,.68.63c.21.31.47.33.79.39a16.4,16.4,0,0,1,2,.5c.28.09.51.2.75-.06s.66-.27,1,0a2.58,2.58,0,0,0,.7.44,3.08,3.08,0,0,0,3.13-.66,14.25,14.25,0,0,1,1.7-1.31,27.43,27.43,0,0,0,3-2.58,1.41,1.41,0,0,1,.8-.31c.55,0,1.11.07,1.66,0s.69.3.83.6a21.42,21.42,0,0,1,.89,2.35c.18.58-.21,1.07-.5,1.54-.06.1-.39.07-.58,0a8.77,8.77,0,0,1-1.24-.35,1.1,1.1,0,0,0-1.38.45,10,10,0,0,1-3.75,2.69c-.53.25-1.06.5-1.57.77-.91.47-1.78,1-2.71,1.41a10.61,10.61,0,0,1-1.78.48c-.18,0-.41,0-.54.13-1.13.92-2.59.85-3.88,1.3-.93.33-2,.2-3,.48a8.73,8.73,0,0,1-3.74,0,2.75,2.75,0,0,1-2.27-1.28,9.92,9.92,0,0,1-.59-1.34,1.52,1.52,0,0,1,.31-1.38,1.76,1.76,0,0,0,.25-1.77.52.52,0,0,1,0-.28,6.86,6.86,0,0,0-1-3.61c-.34-.76-.57-1.56-.87-2.34a8.28,8.28,0,0,0-.52-1.18,1,1,0,0,0-1-.52c-.82,0-.94-.21-1-1.05a1.31,1.31,0,0,1,1-1.51,6.57,6.57,0,0,0,.88-.44c-.05-1-.05-1,.62-2-.31,0-.56-.09-.82-.11s-.49,0-.73,0c-.39,0-.77-.36-1.15,0-.56.56-1.25,1-1.39,1.9a1.39,1.39,0,0,1-1.92,1.19,1.79,1.79,0,0,0-.89,0,3.62,3.62,0,0,1-2.92-.52c-.42-.24-.94-.38-1.12-.92a.34.34,0,0,0-.2-.19c-.83-.2-.91-.69-.62-1.4a.5.5,0,0,0-.38-.72c-.27-.08-.54-.13-.81-.2a2.94,2.94,0,0,1-.8-.21c-.55-.29-1-.69-1.59-.95-1.82-.83-2.84-2.55-4.28-3.8a1.11,1.11,0,0,1-.23-.59c-.16-.9-.28-1-1.16-1.1a.77.77,0,0,1-.67-.4,11.28,11.28,0,0,0-1-1.22c-.16-.18-.39-.41-.6-.42-.95-.05-1.61-.77-2.45-1a1.26,1.26,0,0,1-.53-.35,2.52,2.52,0,0,0-2-.74c-.45,0-.91-.11-1.36-.12a10.19,10.19,0,0,0-1.1.09l-1,0c-.16,0-.35-.06-.46,0-.66.4-1.46.32-2.11.62a6.37,6.37,0,0,0-1.62,1.23,6,6,0,0,1-2.62,1.17,1.45,1.45,0,0,0-.7.35c-.52.66-1,1.34-1.45,2a.78.78,0,0,0,0,.58c0,.05.34.06.47,0a4.68,4.68,0,0,0,1.29-.56c.52-.44,1.48.19,1.52.91,0,.55.06,1.1.09,1.65s-.27.86-.85.75c-.25-.05-.49-.11-.73-.18a1.41,1.41,0,0,0-2,1.23A2.58,2.58,0,0,1,68,132.05c-.5.21-1,.47-1,1.18a.62.62,0,0,1-.64.67c-.59-.06-.78.25-.85.74a2,2,0,0,1-.12.34c-.9.22-.9.22-1.63-1a1.69,1.69,0,0,0-.29.17c-.55.37-.8.33-1.1-.24a12.67,12.67,0,0,1-.53-1.19,1.22,1.22,0,0,0-1,1.37,2.93,2.93,0,0,1-1.29,2.81c-1.24,1.06-2.54,2-3.77,3.12a1.2,1.2,0,0,1-1.37.12,1.55,1.55,0,0,0-2.19,1.23,1.49,1.49,0,0,1-1.08,1.33,2.05,2.05,0,0,0-.91.74,2.27,2.27,0,0,1-2.5.95c-.18,0-.39-.14-.54-.08a1.54,1.54,0,0,1-1.77-.26.59.59,0,0,0-.94.24,2.74,2.74,0,0,1-.52.6l.58,1.28c-.27.15-.45.26-.64.35-.6.27-.7.5-.57,1.16,0,.22.07.62,0,.66a1.67,1.67,0,0,1-.86.07,7.7,7.7,0,0,0-1.44-.3,1.76,1.76,0,0,1-1.56-.82c-.23-.28-.46-.57-.68-.87s-.24-.56.26-1a7.14,7.14,0,0,1,.93.71c.41.42.92.32,1.39.34a.44.44,0,0,0,.45-.57c-.06-.3-.25-.39-.55-.34a1.42,1.42,0,0,1-1.55-.51c-.23-.31-.95-.27-1.46-.36-1.18-.21-2.38-.37-3.55-.61a1.91,1.91,0,0,0-1.83.32c-.57.51-1,.44-1.65-.08a.77.77,0,0,0-.93-.14c-.39.22-.68.06-1-.22-.66-.63-.95-.65-1.7-.15s-1.63,1-2.39,1.59a7.27,7.27,0,0,0-1.06,1.15,6.8,6.8,0,0,1-.57.73.78.78,0,0,1-.64.16.71.71,0,0,1-.32-.58,19.34,19.34,0,0,1,.37-2.3,1.34,1.34,0,0,0-.22-1.22c-.38-.52-.71-1.08-1.07-1.65l1-1.11a4.8,4.8,0,0,0-.35-.42,2,2,0,0,1-.07-2.93c.1-.11.26-.18.34-.31a7.67,7.67,0,0,0,.39-.77l-.87-.42a7.51,7.51,0,0,1-1.05-.56,1.1,1.1,0,0,1-.39-1.52c.08-.17.14-.35.23-.51a.9.9,0,0,0-.12-1.2,1.5,1.5,0,0,1-.34-1.63,2.18,2.18,0,0,0-.32-2.08c-.56-.73-.91-1.62-1.41-2.39a3.06,3.06,0,0,0-1-1,1.12,1.12,0,0,1-.58-.87,1.77,1.77,0,0,0-.4-.89,1.48,1.48,0,0,1,.3-2.43c.32-.21.66-.41,1-.59-.25-.3-.43-.54-.63-.77a1.45,1.45,0,0,1-.15-2c.57-1.08,1.61-1.9,1.72-3.22a13.75,13.75,0,0,0,1.75-2.89,1.29,1.29,0,0,1,.75-.47,1,1,0,0,0,.75-1c0-.23,0-.59-.15-.65a2,2,0,0,0-.86-.07c-.05,0-.11.06-.15.1a1.4,1.4,0,0,1-1.53.24,4.36,4.36,0,0,0-2.35.07,1.48,1.48,0,0,1-1.45-.35l-4-3.56-.35-.31c-.65-.59-.77-1.23-.16-1.85a3,3,0,0,0,.77-2.19,3.3,3.3,0,0,1,.66-2.23,1.29,1.29,0,0,0,.21-1.15c-.11-1.07-.27-2.14-.35-3.21a3.4,3.4,0,0,0-.78-1.76,1,1,0,0,0-1.32-.26c-1.42.61-1.93.44-3.09-.51a5.39,5.39,0,0,0-2.57-1.56,4.29,4.29,0,0,1-1.57-.75A1.18,1.18,0,0,1,2.85,89a14.44,14.44,0,0,1,0-1.62C4.61,86.15,6.39,85,8.15,83.8l5.45-3.68c1.09-.75,2.16-1.54,3.26-2.28a1.15,1.15,0,0,0,.55-1.18c-.2-2-.4-4-.62-5.91-.14-1.29-.34-2.57-.48-3.85-.19-1.68-.36-3.37-.48-5.06,0-.45.2-.92.18-1.37,0-1-.17-1.91-.24-2.87-.1-1.48-.12-3-.28-4.44-.21-2-.53-4-.78-6-.18-1.41-.32-2.82-.48-4.23-.28-2.37-.58-4.74-.84-7.11-.1-.89-.12-1.79-.19-2.68,0-.58-.13-1.16-.18-1.74-.22-2.47-.4-5-.64-7.41-.12-1.2-.37-2.38-.54-3.56-.09-.65-.12-1.3-.2-1.95-.22-1.78-.47-3.56-.66-5.34-.17-1.53-.27-3.08-.44-4.62a11.18,11.18,0,0,0-.32-1.63C10,6,10,6,10.74,5.66a3.51,3.51,0,0,1,2.62-.21,12,12,0,0,0,3.86.34c1.94,0,3.87,0,5.81,0l1.86,0c1.5,0,3,0,4.5,0,2.61,0,5.21,0,7.82-.06,1.23,0,2.46,0,3.69.06H44c1,0,2,0,3,0,1.3,0,2.6-.14,3.89-.13,1.62,0,3.23.11,4.84.15,1.35,0,2.72,0,4.07,0,1.79.06,3.57.18,5.35.23,1.58.05,3.15,0,4.73.05,1.89,0,3.77.19,5.66.17a13.67,13.67,0,0,0,3.67-.05,2.45,2.45,0,0,1,1.11,0,19.5,19.5,0,0,0,4.25.11c1.48,0,3,0,4.44,0,1.88,0,3.76-.11,5.64-.15.62,0,1.24.08,1.85.07,1.59,0,3.19-.15,4.78-.18.68,0,1.35.11,2,.11,2,0,4-.07,5.94-.1.65,0,1.29,0,1.94,0l4.83,0,6.93.08c2.26,0,4.52.09,6.79.13,1.45,0,2.91,0,4.37,0,2,0,4,0,6.05,0,2.85,0,5.7-.05,8.55,0,1.32,0,2.65.11,4,.13s2.52,0,3.77,0h1.77c1,0,2-.07,3-.07,1.26,0,2.53.06,3.79.07.87,0,1.73,0,2.6,0,2,0,3.9,0,5.85,0,1.39,0,2.79-.08,4.18-.08s3,.07,4.54.08c1,0,2.05,0,3.07,0,1.42,0,2.84-.13,4.26-.16q3.53-.07,7.06-.1c.95,0,1.9,0,2.85,0,2.08,0,4.15,0,6.23-.09,1.9,0,3.81-.12,5.72-.14.86,0,1.72.11,2.58.1,1.33,0,2.66-.11,4-.13,2,0,4,0,6,0l5.72-.05,8.54-.12c1.89,0,3.79-.08,5.69-.13,3.14-.06,6.28-.15,9.43-.19,1.91,0,3.82.06,5.73.07,1.11,0,2.22,0,3.33-.06h2.13c2.06,0,4.13,0,6.2-.08s4.38-.08,6.57-.15c2.59-.07,5.19-.18,7.78-.24A4.85,4.85,0,0,1,286.27,5.16Zm5.42,46.12.88-.71c.33-.27.7-.51.5-1.07a1.24,1.24,0,0,1,.12-.69c.12-.29.31-.54.44-.82.35-.75.06-1.19-.77-1.28a2.07,2.07,0,0,1-1-.37,5.09,5.09,0,0,1-1.09-1.13,4.33,4.33,0,0,0-2.17-1.79c-.34-.12-.63-.33-.55-.75.12-.69-.33-1.09-.69-1.55s-.95-1.21-1.37-1.86a1.73,1.73,0,0,1-.16-.89c0-1.07,0-2.16,0-3.24,0-2-.09-4-.12-5.94,0-2.78,0-5.57-.09-8.35-.05-2.57-.23-5.13-.19-7.7q0-3.21-.2-6.4c-.05-.73-.16-.86-.84-.85L281.27,6l-7.21.19c-2.59.08-5.18.21-7.77.24-3.22,0-6.44,0-9.66,0-1,0-2,0-3.08,0a.91.91,0,0,0-.68.33.81.81,0,0,0,.16,1c.19.17.38.32.58.48a1.46,1.46,0,0,1,.64,1.77,1.08,1.08,0,0,0,0,.36c.09,1,.1,1-.86,1.38a.72.72,0,0,0-.57.83A1.78,1.78,0,0,0,254,13.77a1.06,1.06,0,0,1,1,1c.07.51.09,1,.14,1.54-.7.17-1.29.35-1.89.46s-1.29.21-1.93.29c-1.47.18-3,.33-4.42.53-.52.08-.69.45-.5,1a1.69,1.69,0,0,0,.2.43,1.07,1.07,0,0,1,0,1.37,1.12,1.12,0,0,0-.17.71,10.25,10.25,0,0,0,.26,3.12,2,2,0,0,1,.06.82,22.76,22.76,0,0,0,.18,3.87,2.1,2.1,0,0,0,.59,1.23,6.77,6.77,0,0,1,1.87,3.46,4.07,4.07,0,0,1,.14,2.53c-.28.65-.69,1.24-1,1.88a3.68,3.68,0,0,0-.47,1.28c-.08,1.11,0,2.22-.06,3.34,0,.47.18.68.64.72l2,.2,7.31.74c.68.08.87.38.8,1a19.78,19.78,0,0,0-.31,4.07,9.09,9.09,0,0,1-.34,3.94,2.61,2.61,0,0,0-.05.93c0,1.48.06,3,.09,4.45,0,.67,0,1.35,0,2,0,1.6.09,3.2.06,4.8,0,1.18-.19,2.36-.2,3.53,0,3.27,0,6.54.05,9.81,0,.87.27,1,1.1.78a34.93,34.93,0,0,1,3.76-.92,28.76,28.76,0,0,1,3.6-.23c.65,0,1.31.12,1.94,0a10,10,0,0,1,4.49.42,1,1,0,0,0,.7-.08,5.91,5.91,0,0,0,1.05-.75c.88-.73,1.7-1.53,2.62-2.21a18.81,18.81,0,0,1,1.89-1c1.54-.9,3.11-1.77,4.68-2.62a31.44,31.44,0,0,0,3.24-2.32c.39-.29.8-.56,1.21-.82.78-.5,1.43-1.22,2.19-1.66a20.8,20.8,0,0,0,3.4-2.85c1.73-1.54,3.2-3.37,5.11-4.71.41-.29.34-.64-.12-.85a2.13,2.13,0,0,0-.27-.07c-.83-.33-.92-.63-.4-1.34.33-.46.26-.78-.26-.88a1.54,1.54,0,0,1-1.24-1.05c.11-.19.24-.4.34-.62.22-.45.11-1-.3-1.09A3.09,3.09,0,0,1,295,52.51a1,1,0,0,0-1.19-.5c-.24.07-.49.07-.73.13C292.24,52.35,292,52.24,291.69,51.28ZM58.56,60.21c-.08-.46-.11-.8-.2-1.12a2,2,0,0,0-2-1.6c-.15,0-.31,0-.46,0a.81.81,0,0,1-.68-1.27c.16-.31.35-.59.48-.9a.84.84,0,0,0-.31-1.14C54,53.23,54,52,55.3,50.84A1.6,1.6,0,0,0,56,49.39c-.48-.54-1.4-.89-1-1.93-.18-.14-.34-.29-.52-.41-.77-.5-1-1.12-.54-1.84a6.48,6.48,0,0,1,1.66-1.83,2.26,2.26,0,0,0,1.17-2.29A1.49,1.49,0,0,1,58,39.56c1,.07,1,.07.89-.89,0-.12,0-.23,0-.16-.78-.56-1.47-1-2.07-1.49-.31-.27-.38-.84-.7-1.05-.75-.47-1.06-1.27-1.59-1.91-.29-.35-.55-.73-.77-1,.28-.83.51-1.55.77-2.27a1.54,1.54,0,0,1,.26-.49,3.93,3.93,0,0,1,2.35-1.49c.18,0,.33-.22.56-.37-.24-.26-.39-.55-.62-.64a1.83,1.83,0,0,1-1.19-2l-2.43-.13a6.26,6.26,0,0,1-.42.68.89.89,0,0,1-1.64-.22,2,2,0,0,0-1.24-1.28.79.79,0,0,1-.53-1,1.64,1.64,0,0,0-.9-1.92c-1.06-.68-2.18-1.28-3.28-1.89A1.25,1.25,0,0,1,45,18.34c.45-.74.38-1-.47-1.28l-.61-.22a2.43,2.43,0,0,1-1.39-1.18,3.52,3.52,0,0,0-1-1.2,1.51,1.51,0,0,1-.7-1.53,1,1,0,0,0-.08-.54c-.24-.6,0-1.24-.23-1.87A.92.92,0,0,1,41,9.45a2.19,2.19,0,0,0,.67-.62c.29-.36.59-.51,1-.25a4.06,4.06,0,0,0,.6.25A4.06,4.06,0,0,1,43.93,8a5.63,5.63,0,0,1,1-.46.6.6,0,0,0-.6-.7c-.22,0-.44,0-.65,0l-8.54,0H26.41c-3.72,0-7.43,0-11.15,0a16.17,16.17,0,0,1-2.37-.36,1.74,1.74,0,0,0-1.69.31,6.27,6.27,0,0,1,.35,1.19c.13,1.57.14,3.15.32,4.72.31,2.73.74,5.44,1.08,8.17.21,1.69.37,3.38.53,5.08.21,2.09.42,4.18.61,6.27.16,1.75.25,3.51.44,5.26.28,2.65.61,5.3.94,7.94.1.86.26,1.71.38,2.56.09.65.13,1.3.21,1.94.11.9.27,1.8.36,2.7s.08,1.71.14,2.56a65.24,65.24,0,0,1,.38,7,48.89,48.89,0,0,0,.46,6.38c.12,1.29.32,2.56.51,3.84.07.47.19.94.31,1.51,1.61-.35,3.13-.63,4.63-1a4.45,4.45,0,0,1,1.74-.08c1.25.18,2.51.32,3.77.49s2.69.35,4,.6c.9.17,1.21,0,1.18-.94,0-.74-.08-1.47-.1-2.21,0-1.32-.14-2.65-.13-4,0-1.79-.13-3.58,0-5.37.07-.88.14-1,1-1,1.49,0,3,0,4.45,0,1.09,0,2.17,0,3.25,0,.87,0,1.73-.09,2.59-.1,1.35,0,2.71,0,4.06,0H52q2,0,4,0c.58,0,1.16,0,1.74,0A7.29,7.29,0,0,0,58.56,60.21Zm-36,78.64.18.12c.29.37.59.72.84,1.11a.94.94,0,0,1-.12,1.27c-.51.54-.53.55-.06,1.09a1.8,1.8,0,0,1,.59,1.92c0,.09.1.24.14.32,1.1-.67,2.14-1.33,3.22-1.94a1.58,1.58,0,0,1,1.49-.27,4.2,4.2,0,0,0,2.51.48.71.71,0,0,1,.44.1,1.42,1.42,0,0,0,1.33,0,2,2,0,0,1,1-.18c1.09.17,2.17.42,3.26.62a6.86,6.86,0,0,0,.91,0,1.4,1.4,0,0,1,.65.05c.7.37,1.63.16,2.23.84.07.09.3,0,.44.07s.58.15.89.23a2,2,0,0,0,.57-1.23.93.93,0,0,1,1-.88,4,4,0,0,1,.84.09l2.87.62a1.53,1.53,0,0,0,1.81-.74,7.18,7.18,0,0,1,1.25-1.21c.09-.09.24-.16.25-.26.11-.69.72-1,1.11-1.45a2,2,0,0,1,2.24-.67,1.31,1.31,0,0,0,1.3-.26c1.07-.9,2.18-1.74,3.2-2.69a2.37,2.37,0,0,0,.84-1.48,10.85,10.85,0,0,1,.25-1.91.93.93,0,0,1,.63-.84c.71-.22,1-.8,1.33-1.35a5,5,0,0,1,1.15-1.31,1.86,1.86,0,0,1,2.89.65c.21.38.37.78.56,1.17s.45.53.77.19c.47-.49,1.39-.72,1.14-1.71,0-.07.15-.18.22-.28a4.41,4.41,0,0,0,.5-.66c.08-.17.12-.47,0-.58a1,1,0,0,0-.63-.26c-.12,0-.25.16-.39.22-.76.37-1.12.18-1.38-.77l.58-.54a17.83,17.83,0,0,0,1.35-1.25c.38-.44.61-1,1-1.46.62-.73,1.13-1.63,2.28-1.73.34,0,.65-.39,1-.62-.2-.22-.29-.33-.4-.44a3.89,3.89,0,0,1-1.27-3c0-.4,0-.8-.08-1.2-.07-.72-.23-.92-.93-1.09a11.25,11.25,0,0,1-1.55-.35c-.54-.22-1.25-.37-1.38-1.07a5.07,5.07,0,0,1,.12-1.44c0-.32.11-.64.18-1-.52,0-.91,0-1.3,0-.88-.09-1.24-.48-1.11-1.36a5.1,5.1,0,0,0-.27-2.27,2.58,2.58,0,0,1,1-2.94,3.13,3.13,0,0,0,.64-.67,1,1,0,0,0-.66-1.56c-.48-.13-1-.21-1.45-.38-.89-.34-1.78-.71-2.65-1.1a1.31,1.31,0,0,1-.85-1.24,1.94,1.94,0,0,1,.68-1.67c.56-.42,1.15-.82,1.75-1.19s.68-.69.4-1.15c-.56-1-1.18-1.88-1.77-2.81a1,1,0,0,0-.29,0c-2.16.42-4.31.83-6.46,1.29a1.38,1.38,0,0,0-.7.57C53.84,96.73,53,98,52.2,99.36a6.84,6.84,0,0,1-1.79,1.73c-.48.39-.8.27-1.09-.3s-.55-1.12-.87-1.65A2.24,2.24,0,0,0,46,98.31a.94.94,0,0,1-1.41-1c0-.23.06-.47.09-.65-1-.59-2-.87-2.7-2a5.9,5.9,0,0,0-.09.83c0,2.43,0,4.85.08,7.27,0,.74-.24,1.06-1,1.1h-.46l-9.1,0c-.68,0-1.36,0-2,.07s-1.09,0-1.64,0a5.08,5.08,0,0,0-.15.74c-.08,1.51-.15,3-.22,4.54,0,.74-.18.86-.89.83s-1.65,0-2.48,0a.87.87,0,0,0-.92.64,1.47,1.47,0,0,1-1.6,1.21,6.77,6.77,0,0,0-.4,1.23c-.06.35-.16.65-.47.75-.66.22-.75.72-.82,1.31-.05.42-.17,1-.46,1.17a3.41,3.41,0,0,0-1.1,1.3c-.35.55-.28.86.31,1.08a2.61,2.61,0,0,1,1.25,1,1.25,1.25,0,0,1-1.2,1.36,2.28,2.28,0,0,0-.44.15c-.8.29-.89.67-.31,1.27.31.33.73.58.62,1.17,0,.15.17.37.29.52s.53.53.73.83c.5.8,1.29,1.45,1.39,2.48,0,.11.14.2.22.29a2.15,2.15,0,0,1,.46,2.24,1.36,1.36,0,0,0,.26,1.45,1.39,1.39,0,0,1,.18,1.7c-.53,1-.38,1.24.71,1.57l.36.1a1.29,1.29,0,0,1,.76,1.87c-.15.3-.38.57-.55.86S22.82,138.43,22.59,138.85ZM59,93.06a6.27,6.27,0,0,1-.57-.77,2,2,0,0,1-.36-.92,16,16,0,0,1,.35-2.29,1.21,1.21,0,0,1,.71-.89,1.56,1.56,0,0,0,1-1.33c0-.8.15-1.6.24-2.39a2.27,2.27,0,0,1,1.82-2.13,3.92,3.92,0,0,0,1.45-.93,12.59,12.59,0,0,1,2.07-2,1.13,1.13,0,0,0,.26-.29c0-.59-.43-.7-.84-.8a1.26,1.26,0,0,1-1-1.28,8.51,8.51,0,0,1,0-1c0-.27,0-.54,0-.8-.07-.95-.25-1.91-.23-2.86a17.19,17.19,0,0,1,.37-2.66,2.3,2.3,0,0,1,.4-.71c.1-.15.34-.28.34-.41a2.81,2.81,0,0,1,.86-1.77c-.36-.5-.86-.39-1.3-.44A2.7,2.7,0,0,1,61.93,64a3.36,3.36,0,0,0-3.19-2.77l-6.21-.05c-2.36,0-4.71-.08-7.07,0-2.9,0-5.8.23-8.7.1a12.06,12.06,0,0,0-1.59,0c-.83.06-.86.1-.85,1,0,1.79,0,3.59.07,5.38q.07,3.35.18,6.67c0,.58-.34.89-1,.79-1.39-.24-2.77-.52-4.17-.72-1.74-.24-3.49-.42-5.24-.61a3.86,3.86,0,0,0-1,.11l-3.47.65-.91.18a.53.53,0,0,0-.47.67c.06.52.12,1,.21,1.54a1.33,1.33,0,0,1-.74,1.54c-.8.5-1.63,1-2.42,1.53-1.81,1.23-3.6,2.49-5.4,3.73L5.1,87c-.36.24-.76.44-1.09.71a.66.66,0,0,0,.17,1.18c.59.25,1.2.47,1.8.72a2.21,2.21,0,0,1,.45.3,7.39,7.39,0,0,1,1.12,1,2.27,2.27,0,0,0,3.2.56.89.89,0,0,1,1.05.06,4.26,4.26,0,0,1,1.78,3,24.44,24.44,0,0,0,.33,3.2,2.11,2.11,0,0,1-.22,1.49,5.56,5.56,0,0,0-.69,2.67,2.48,2.48,0,0,1-.61,1.61c-.56.68-.55.91.15,1.42.47.34,1.12.54,1.43,1a17.83,17.83,0,0,0,2.1,2.07,1.2,1.2,0,0,0,.9.39c1,0,2.07-.38,3.12-.05a.75.75,0,0,0,.57-.24A1.11,1.11,0,0,1,22,107.9a2.9,2.9,0,0,1,1.39.9.83.83,0,0,0,.54.31c.74,0,1.48,0,2.32,0,.06-.44.13-.8.15-1.15.08-1.39.12-2.78.21-4.17,0-.64.29-.83.95-.84l4.55,0H40c.73,0,.91-.17.9-.86,0-2.59,0-5.18,0-7.77a1.69,1.69,0,0,1,.12-.54c.14-.4.3-.8.48-1.26l.48,0c1.23-.12,1.88.51,1.73,1.75a.69.69,0,0,0,.4.82c.36.18.68.45,1,.59a.88.88,0,0,1,.64.91V97c1.46,0,3.31.7,3.82,2.28.26.83.8.86,1.32.12.82-1.16,1.67-2.32,2.37-3.55a3.68,3.68,0,0,1,3.27-2.21,3.06,3.06,0,0,0,.73-.1C57.83,93.37,58.34,93.23,59,93.06ZM76,35.75a5.13,5.13,0,0,1,0,.68q-.34,2.84-.7,5.68c-.14,1-.3,2.07-.43,3.1-.21,1.82-.42,3.63-.61,5.45-.06.55.09.72.64.82a12.88,12.88,0,0,0,1.39.18c1.13.09,2.29.09,3.41.26a27.78,27.78,0,0,0,5,.25c2.93-.08,5.85-.23,8.78-.27,2.25,0,4.5.06,6.75.07,1.42,0,2.84,0,4.27,0s2.82.08,4.23.12c.77,0,1.55.06,2.32,0a6.39,6.39,0,0,0,1.63-.27c1.19-.41,2.37-.89,3.55-1.34l1.22-.49c1.18-.45,2.38-.87,3.54-1.37,1.51-.64,3-1.37,4.49-2a14.15,14.15,0,0,0,3.54-2c.3-.25.76-.47.59-1-.61,0-1.19-.05-1.76-.09a1.94,1.94,0,0,1-1.73-1.73,2.5,2.5,0,0,0-.26-1,19,19,0,0,0-1.21-2,2,2,0,0,1-.48-1.42c.08-1.24-.29-1.62-1.52-1.8a.65.65,0,0,1-.57-.51,2.22,2.22,0,0,0-1.5-1.61.68.68,0,0,1-.45-1,.82.82,0,0,0-.28-1.14.93.93,0,0,1-.34-1.06c.17-1.12.34-2.25.48-3.37.17-1.38.3-2.75.46-4.13.13-1.16.28-2.33.42-3.49s.29-2.32.43-3.48c.18-1.5.38-3,.55-4.51a4,4,0,0,1,1.2-3c.12-.1.15-.31.21-.44a1.05,1.05,0,0,0-1-.4l-9.09-.09c-2,0-4.09-.11-6.14-.11-1.6,0-3.21.07-4.82.11l-6.07.12a7.4,7.4,0,0,0-1.26,3.06q-.39,3.4-.83,6.81c-.19,1.53-.41,3.05-.6,4.58-.32,2.62-.63,5.23-.93,7.85,0,.39-.2.54-.59.55a1.26,1.26,0,0,1-1.3-.71,1.17,1.17,0,0,0-1.49-.6c-.39.1-.75.3-1.13.42a12.46,12.46,0,0,1-1.77.46c-.62.08-1.25,0-1.87,0a3,3,0,0,0-.57.15,2,2,0,0,0,1.05,1.41,1.65,1.65,0,0,1,1,1.56c0,.68-.14,1.35-.22,2s-.19.86-.92.85l-6.13,0Zm136.76,9.94c.7,0,1.31,0,1.93,0q3.25.09,6.5.21c1,0,2,.12,3,.17.83,0,1.66.06,2.49.07.4,0,.8,0,1.2,0,1.75,0,3.51.08,5.26,0,1.32,0,2.65-.21,4-.33a17.64,17.64,0,0,0,4.22-1,20.38,20.38,0,0,1,4.05-1.31c.54-.08,1.06-.26,1.64-.4,0-.83,0-1.6,0-2.37,0-1.41-.06-2.78,1-3.92a2.08,2.08,0,0,0,.62-1.8,17.14,17.14,0,0,0-.68-2.5,7.22,7.22,0,0,0-.75-1.14c-.46-.75-1.24-1.33-1.3-2.31-.05-.83-.1-1.65-.17-2.48-.1-1.26-.2-2.52-.35-3.77-.19-1.58.41-3.17-.08-4.75a1.18,1.18,0,0,1,0-.37c0-.69.16-.86.84-1s1.53-.25,2.3-.36,1.59-.25,2.39-.35,1.65-.18,2.48-.3c.27,0,.59-.1.59-.48s-.28-.41-.59-.43a.93.93,0,0,1-.87-.72,2.42,2.42,0,0,0-.37-.64,1.69,1.69,0,0,1,.55-2.53,1.25,1.25,0,0,0,.06-2.05,2.05,2.05,0,0,1-1-1.49c-.1-.84-.2-.92-1.07-.93-.56,0-1.11.06-1.67.07-1.65,0-3.31,0-5,.06-2.25,0-4.51.1-6.76.13-1.07,0-2.13-.06-3.19,0s-2,.13-3,.14c-3.19,0-6.38.06-9.57.08-1.29,0-2.57,0-3.86,0-.8,0-1.6,0-2.4,0-1.05,0-2.1.07-3.15.13a2.06,2.06,0,0,0-.53.22c0,1.46,0,2.91,0,4.35,0,2.45,0,4.89.11,7.33a16.75,16.75,0,0,0,.37,4,6.37,6.37,0,0,1,.32,1.72c0,3.06,0,6.12,0,9.18a66.84,66.84,0,0,0,.18,7.49,29.36,29.36,0,0,1,0,3.25C212.63,44.9,212.7,45.26,212.75,45.69ZM73.13,51.27c.18-1.31.36-2.5.5-3.69s.21-2.21.35-3.32c.3-2.48.62-5,.93-7.45.08-.61.15-1.23.29-1.83s.4-.71.85-.55a5.87,5.87,0,0,0,2.28.29c1.5,0,3,.09,4.52.08S84,35,84.56,33.6c.31-.73.2-1-.5-1.43-.1-.07-.18-.17-.28-.24-.83-.57-1.09-1.53-1.61-2.32-.15-.24-.4-.48-.11-.72a1.14,1.14,0,0,1,.74-.23c.68,0,1.36.11,2,.14a5.45,5.45,0,0,0,2.73-.44,3.19,3.19,0,0,1,3.88.25,5.93,5.93,0,0,0,.24-.84c.09-.8.14-1.6.23-2.4.33-2.64.68-5.27,1-7.91.25-2,.46-4.05.77-6.06a7,7,0,0,1,.83-3.29c.13-.19.06-.52.08-.8H85.83L84,7.33c-.92,0-1.83,0-2.75,0-.34,0-.67-.1-1-.1L77,7.3c-.8,0-1.6,0-2.4,0-1.4,0-2.81-.09-4.21-.13-2-.06-4.07-.11-6.1-.18-1.58,0-3.15-.22-4.73-.17-2.68.1-5.35-.17-8-.15-1.32,0-2.63.05-3.95.11-.19,0-.51.21-.54.36-.11.63-.55.83-1.06,1s-1.07.28-1.29.82a1.27,1.27,0,0,1-1.33.83c-.78-.08-1.18.38-1.67.76.08.89.14,1.74.25,2.58a1.17,1.17,0,0,0,.37.7,5.19,5.19,0,0,1,1.14,1.33,2.15,2.15,0,0,0,1.16.85,2.73,2.73,0,0,1,2.27,1.44c.4.72.53.65,0,1.29-.29.39-.27.64.13.92s1,.62,1.47,1A14.93,14.93,0,0,1,50.17,22,6.23,6.23,0,0,1,51,23.09l-.09.75,2,.76a1.49,1.49,0,0,1,.75-.06,3.49,3.49,0,0,0,2.28,0c.84-.2,1.43.33,1.56,1.22a3.21,3.21,0,0,0,.46,1.08c.18.32.46.58.64.89A1.13,1.13,0,0,1,58,29.54c-.17.09-.35.15-.51.24-.56.3-1.11.62-1.7.95.39.73.26,1.24-.42,1.59-.15.08-.23.27-.39.46l1.26,1.83,1-.28.77.59-.56,1.44.29.25c.91.65,1.21.55,1.6-.52a4.4,4.4,0,0,1,.37-.68c1.14.39,1.3.68.89,1.64a6,6,0,0,0-.66,2.4c0,.78-.43,1.13-1.24,1.24l-.95.09a1.46,1.46,0,0,0-.05.39,2.46,2.46,0,0,1-1.26,2.73,6,6,0,0,0-1.77,1.92,4.72,4.72,0,0,1,1.13,1,4.61,4.61,0,0,1,.34,1.45,8.2,8.2,0,0,0,.81.5c.45.24-.09.73.33,1a2.82,2.82,0,0,0,.56.06c1.14,0,2.29,0,3.44,0a30,30,0,0,1,3.42.17C67.47,50.35,70.2,50.81,73.13,51.27ZM162,40.36c-.41-.14-.72-.26-1-.35s-.84-.2-1.27-.3c-1.32-.29-2.64-.69-4-.85-1.65-.2-3.33-.24-5-.29-1.49,0-3,0-4.46,0a12.6,12.6,0,0,0-5.66,1.27c-1,.46-2.13.82-3.16,1.32s-2.21.69-2.1,2.2c-.68,1.16-.61,2.51-.82,3.77-.39,2.25-.58,4.53-.88,6.8-.27,2.05-.58,4.09-.83,6.14-.19,1.54-.33,3.09-.49,4.63,0,.25-.07.49-.11.74-.24,1.5-.49,3-.73,4.5-.19,1.19-.38,2.38-.55,3.57-.08.6-.13,1.2-.21,1.94.53,0,.93,0,1.32,0,.81,0,1.61.1,2.41.16a.57.57,0,0,1,.62.65c0,.8,0,1.6,0,2.4s-.06,1.67-.08,2.5A20.81,20.81,0,0,1,135,84.4a29.3,29.3,0,0,0-.28,4.07c0,.68.3,1,.92.74,1-.44,1.46.33,2,.84s.89,1.1,1.44,1.53a4.87,4.87,0,0,1,1.35,1.51c.34.61.61.65,1.18.28.76-.51,1.54-1,2.29-1.48a16.48,16.48,0,0,1,1.42,1,.84.84,0,0,0,1.16.06,2.38,2.38,0,0,1,2.17-.51c.65.27.93,0,1.31-.44a2.07,2.07,0,0,1,1.91-.89,2.64,2.64,0,0,0,1.69-.17,1.45,1.45,0,0,1,2.24.74c.22.48.9,1,1.27.95a7.23,7.23,0,0,0,1.87-.47,27.42,27.42,0,0,1,2.57-1.22c.34-.13.69-.22,1-.34s.56-.13.63-.29a20.11,20.11,0,0,0,1.05-2.55c.18-.61-.08-.87-.69-.88a7.14,7.14,0,0,0-1,.15,12.1,12.1,0,0,1-.78-1.94c-.2-.94-.19-1.92-1-2.59-.08-.07-.06-.25-.13-.34-.26-.34-.54-.66-.81-1a5.72,5.72,0,0,1-.84-1,.83.83,0,0,0-.87-.52,7.12,7.12,0,0,1-1.39-.09.79.79,0,0,1-.66-.8.77.77,0,0,1,.61-.83,3,3,0,0,0,.45-.11,1.43,1.43,0,0,0,.53-.43A37.46,37.46,0,0,1,159.35,74a2.65,2.65,0,0,0,0-2.94,9.68,9.68,0,0,1-.92-2.68,7,7,0,0,1-.2-2.84c.13-.89.21-1.78.34-2.66.24-1.56.52-3.12.74-4.68.24-1.72.44-3.44.67-5.16.13-1,.32-2,.46-2.93a64.07,64.07,0,0,1,1.23-7.79C161.83,41.69,161.9,41.05,162,40.36ZM228.1,80c0-.35.07-.71.07-1.07q0-4.36,0-8.71a19.9,19.9,0,0,0-.1-2c-.06-.54-.22-.62-.73-.61-1.28,0-2.58.05-3.86,0-1,0-1-.15-1-1.1.07-1.2.13-2.4.18-3.61,0-.83,0-1.67,0-2.5,0-1.3,0-2.59.07-3.89a18.34,18.34,0,0,1,.14-2.87,33.08,33.08,0,0,0,.33-4.33c0-.68,0-1.36,0-2.07a4.35,4.35,0,0,0-1.92-.42c-.82,0-1.65,0-2.48,0-1.57,0-3.14-.13-4.71-.14s-3.32.08-5,.1c-2.23,0-4.46,0-6.69,0-2,0-4,0-5.93.05-1.24,0-2.47.09-3.7.13a14.22,14.22,0,0,1-5.5-.64,2.39,2.39,0,0,0-.81,0c0,1.24-.18,2.39-.11,3.52.21,3.21-.12,6.4-.21,9.59-.05,1.7-.26,3.39-.33,5.08s0,3.5-.06,5.25c0,1.14-.06,2.28-.07,3.43s0,2.28,0,3.43c0,.95-.05,1.91-.05,2.86a.57.57,0,0,0,.64.63c.71,0,1.42.1,2.13.1,2.58,0,5.15-.08,7.73-.08,2.3,0,4.61.1,6.92.08,2.13,0,4.26-.16,6.39-.19,1.64,0,3.28,0,4.91.09,1.46,0,2.91.1,4.36.09C221.88,80.17,224.91,80.09,228.1,80Zm5.5,1.06h-3.77c-.93,0-1.86-.08-2.78,0a11,11,0,0,1-2,.06c-1.74-.14-3.51,0-5.26,0-1.15,0-2.29,0-3.43,0-1.82,0-3.63-.1-5.45-.09-2,0-3.95.13-5.93.14-2.84,0-5.68,0-8.52,0-.46,0-.93.06-1.38.06-.62,0-1.24-.07-1.86-.08-1.32,0-2.65,0-4,0-.8,0-1.6,0-2.4,0s-1,.19-1.06,1.1,0,1.84,0,2.76c0,1.23,0,2.46,0,3.69,0,1,0,2.09,0,3.14s-.1,2-.09,3c0,1.28.09,2.57.11,3.85,0,1.67,0,3.34,0,5,0,2.1,0,4.21,0,6.31s-.06,4.44-.07,6.66a1.24,1.24,0,0,0,.17.79c.82.85.48,1.9.43,2.82s.19,1.51.09,2.26c0,.11.16.24.28.41l2.35-2.16c.63-.59,1.24-1.21,1.9-1.76s1.39-.9,2-1.44a26.44,26.44,0,0,1,3.87-2.88,4.5,4.5,0,0,0,1.57-1.27.57.57,0,0,1,.29-.22,5.21,5.21,0,0,0,2.39-1.87,7.78,7.78,0,0,1,3.25-1.91c1.52-.5,3.11-.77,4.61-1.37,1.32-.52,2.67-1,4-1.48a4.22,4.22,0,0,0,.66-.36c.42-.25.83-.54,1.25-.79a1.16,1.16,0,0,1,1.32,0c.19.13.4.25.71.44a12.39,12.39,0,0,0,.94-1.58,3.57,3.57,0,0,1,1.68-1.79c.43-.24.8-.58,1.22-.82a3.73,3.73,0,0,1,1.32-.6,1.21,1.21,0,0,0,.92-.51,21.24,21.24,0,0,1,1.61-1.92,16.09,16.09,0,0,1,4.69-2.77,7.26,7.26,0,0,0,1.36-.93c.65-.52,1.24-1.13,1.92-1.61a2.92,2.92,0,0,0,1.32-2.75c-.07-2.4,0-4.8,0-7.2A3.75,3.75,0,0,0,233.6,81.09Zm24-35.9c-1.78-.2-3.36-.41-4.95-.56s-3-.25-4.44-.37a10.58,10.58,0,0,0-5.19,1,15.44,15.44,0,0,1-4.94,1.44c-1.19.09-2.38.27-3.57.37-1.36.11-2.72.17-4.08.25a9.89,9.89,0,0,1-1.09,0l-4.33-.23c-.39,0-.68.12-.72.56,0,.21,0,.43,0,.64l-.36,5.82c0,.19-.05.37-.06.56,0,1.57,0,3.15-.05,4.73,0,2.13-.12,4.26-.17,6.39,0,.79,0,.87.81.88,1.37,0,2.73,0,4.1,0,.73,0,.86.18.76.9a21.19,21.19,0,0,0-.19,2.39c0,1.59,0,3.19,0,4.78,0,1.42,0,2.83,0,4.25,0,.78.25,1,1,1.15a6.11,6.11,0,0,0,.74,0h3.77a7.48,7.48,0,0,1,.21,1.17c0,2.91,0,5.82,0,8.73a9.83,9.83,0,0,0,.14,1.16c.39-.28.61-.42.81-.59a10.05,10.05,0,0,1,3.65-2.3c.47-.15,1-.16,1.44-.32a15.62,15.62,0,0,0,4.53-2.48c.2-.16.39-.38.61-.42a11.49,11.49,0,0,0,2.94-1.5c.82-.42,1.62-.92,2.48-1.26,1.85-.76,3.74-1.44,5.65-2.17,0-.54,0-1,0-1.52,0-3-.05-6.08-.05-9.12,0-.76.11-1.52.16-2.28a22.39,22.39,0,0,0,.15-2.31c0-1.54-.19-3.07-.23-4.61,0-2,0-4,0-6a9,9,0,0,1,.19-2A13,13,0,0,0,257.5,49c0-.77,0-1.54.07-2.31C257.59,46.22,257.61,45.75,257.64,45.19ZM59.39,90.77a6.25,6.25,0,0,1,.86-.26,6.67,6.67,0,0,1,2-.26c1.4.22,2.77.63,4.16.94,2.08.47,4.17.92,6.26,1.38l5.08,1.12c1,.24,2.12.43,3.15.74,1.78.53,3.53,1.13,5.3,1.69a2.08,2.08,0,0,0,.65-.07c-.7-2-1.36-4-2-5.9a9.61,9.61,0,0,1-.6-2.9c0-1.23.23-1.51,1.45-1.6.35,0,.71-.08.75-.52s.45-.55.82-.55c.59,0,1.18,0,1.76.07.83,0,1.14-.22,1.22-1,.05-.43.08-.87.16-1.3a17.54,17.54,0,0,0,.06-4.8,17.08,17.08,0,0,1,0-2.58c.07-.9.27-1.78.34-2.68s0-2,.16-2.94c.32-2.32.72-4.64,1.08-7,.12-.79.22-1.59.35-2.38.16-1,.35-2.07.52-3.11.2-1.28.4-2.56.61-4-1,0-1.82,0-2.67,0-1.7.06-3.39.19-5.08.21s-3.33-.06-5-.12c-.87,0-1.73-.14-2.59-.21-1.11-.09-2.22-.15-3.32-.3-1.8-.23-3.59-.53-5.39-.78a16.46,16.46,0,0,1-2.84-.37,16,16,0,0,0-4.75-.54c-1.32,0-2.64,0-4-.07A2.73,2.73,0,0,0,55.62,52a.88.88,0,0,0,.21,1.37c.22.17.46.32.69.48a.71.71,0,0,1,.32.94,11.61,11.61,0,0,0-.33,1.62c.15.07.27.16.37.15a2,2,0,0,1,1.83,1.06,4.57,4.57,0,0,1,.76,1.68,1.4,1.4,0,0,0,.39.7c.72.68,1.51,1.28,2.19,2a2.54,2.54,0,0,1,.84,1.38c.11,1.39.47,2,2,2.06a3.54,3.54,0,0,1,1.56.53c.89.53.93,1.09.15,1.75a1.25,1.25,0,0,0-.46.84,1.77,1.77,0,0,1-.43.89c-.84.85-.52,2-.8,3,.48,1.29.11,2.64.28,4,.12,1,0,1,.84,1.24.6.18,1.09.51,1.06,1.13a1.66,1.66,0,0,1-.84,1.64,3.82,3.82,0,0,0-1,.88c-.85.9-1.61,1.89-3,2.15a1.08,1.08,0,0,0-.88,1.07c0,.74-.14,1.48-.22,2.21-.1.9-.18,1.76-1.23,2.19C59.26,89.1,59.12,89.86,59.39,90.77ZM184.58,7.45c-1.34,0-2.54-.1-3.74-.1-1.49,0-3,0-4.46,0l-7.84.06-8.17.06c-2,0-4,0-5.94,0-1,0-1,.07-1.19,1,0,.13,0,.25-.05.38-.27,2.11-.51,4.24-.81,6.35-.45,3.18-.93,6.36-1.41,9.54-.19,1.19-.44,2.37-.6,3.56-.32,2.24-.62,4.48-.86,6.72a5.06,5.06,0,0,0,0,2.51h2a26.61,26.61,0,0,1,7.43.92c.65.2,1.32.31,2,.46,1.2.26,2.42.51,3.62.79,1.87.44,3.72.94,5.59,1.36,2.84.62,5.71,1.15,8.54,1.81,2,.46,3.94,1,5.91,1.58.23.06.47.08.81.14a5.65,5.65,0,0,0,.12-.93c-.07-1.57-.18-3.14-.25-4.71-.16-3.15-.08-6.3-.31-9.44-.15-2.15-.12-4.3-.18-6.45,0-1.76-.1-3.53-.12-5.29s0-3.58,0-5.36c0-1.33,0-2.65,0-4A8.06,8.06,0,0,0,184.58,7.45Zm-21.4,33a27.1,27.1,0,0,0-.77,2.63c-.33,1.92-.56,3.86-.84,5.79l-1.11,7.63c-.2,1.32-.43,2.63-.6,4-.22,1.65-.37,3.32-.6,5a6.31,6.31,0,0,0,.07,2.37,17.5,17.5,0,0,0,1.19,3.32,3.68,3.68,0,0,1-.12,3.47c-.39.7-.85,1.36-1.29,2-.67,1-.56,1.55.34,2.39A8,8,0,0,1,161,80.82c.43.75.72,1.71,1.88,1.84.41,0,.54.78.2,1.08-.57.51-.32,1-.1,1.51s.42.7,1.13.51,1.21,0,1.25.88a6,6,0,0,1-.13,1.19,1.48,1.48,0,0,0,.06,1.18,5.47,5.47,0,0,0,1.83-.5,1.44,1.44,0,0,1,1.33-.19.85.85,0,0,0,1.06-.34,1.16,1.16,0,0,1,.77-.4,17,17,0,0,1,1.75,0c.25,0,.49,0,.74,0a.44.44,0,0,0-.21-.29c-.77-.33-.85-.77-.29-1.38a3.88,3.88,0,0,0,.42-.68c.11-.18.2-.37.32-.54.54-.8,1.36-.73,2.17-.71,1.7,0,3.41.08,5.11.1,1.24,0,2.48,0,3.72,0,.65,0,.76-.13.77-.67,0-1.82,0-3.64.05-5.46,0-3.84,0-7.67.11-11.5s.32-7.42.5-11.13c0-.71.12-1.41.14-2.12a39.89,39.89,0,0,1,0-5,12,12,0,0,0-.14-2.43c-1.63-.46-3.19-1-4.78-1.33-2.32-.55-4.65-1-7-1.52s-4.59-1-6.88-1.54C165.64,41.11,164.48,40.81,163.18,40.49Zm-29,2.39a2.09,2.09,0,0,0-.6.06,12.69,12.69,0,0,0-3.55,2,8.78,8.78,0,0,1-2.47,1.79c-.85.36-1.69.76-2.54,1.14-1.47.66-2.92,1.36-4.41,2-1.94.81-3.9,1.57-5.86,2.32a9.53,9.53,0,0,1-4.86.86,18.94,18.94,0,0,0-2.5-.06c-2.14,0-4.28,0-6.41,0-1.7,0-3.4-.09-5.09-.13-1.21,0-1.37.13-1.55,1.3-.43,2.78-.89,5.55-1.32,8.32-.25,1.59-.47,3.19-.68,4.78Q92,70,91.69,72.68c-.13,1.22-.22,2.46-.31,3.69,0,.71,0,.72.69.72l5,.08,5.16,0c2.07,0,4.13,0,6.2,0,2.43,0,4.86.12,7.29.16,1.67,0,3.33,0,5,.07l2.24,0c1.82,0,3.65.08,5.47.1a9,9,0,0,0,.94-.1c.21-1.28.43-2.46.6-3.64.27-1.91.43-3.84.79-5.72.54-2.83.79-5.69,1.16-8.54.17-1.26.31-2.52.48-3.78.21-1.5.48-3,.65-4.5s.48-2.91.57-4.39C133.68,45.61,134,44.3,134.19,42.88Zm51.64-35.6a5.47,5.47,0,0,0-.12.77c0,1.8-.05,3.59,0,5.38,0,2.17.07,4.34.1,6.51,0,2,0,4,.08,6s.13,4.19.21,6.29c.05,1.14.24,2.28.18,3.41s0,2.34,0,3.51.07,2.47.14,3.71c0,.73.13,1.46.19,2.2a6.15,6.15,0,0,1,.81.19,14.24,14.24,0,0,0,6.18.67c.87,0,1.74,0,2.6,0,1.52,0,3,0,4.56,0s3-.07,4.53-.1l5.56-.1c.68,0,.77-.08.79-.74,0-1.11,0-2.23,0-3.34,0-.46-.2-.91-.21-1.37,0-2,0-3.95,0-5.93,0-2.28,0-4.55,0-6.83a12.93,12.93,0,0,0-.48-4.83,1.21,1.21,0,0,1-.07-.37c0-1.37-.09-2.73-.11-4.1,0-.93.11-1.87,0-2.78-.2-1.71,0-3.42-.11-5.13,0-1-.09-2.09-.14-3.26-4.16,0-8.23.08-12.3.16S190,7.24,185.83,7.28ZM148.22,37.52c.16-1.27.28-2.37.43-3.48.09-.71.22-1.41.32-2.11.33-2.55.64-5.11,1-7.66.22-1.57.5-3.12.74-4.69.28-1.89.54-3.79.81-5.68s.51-3.68.76-5.53c.08-.61-.06-.8-.66-.85s-1.43-.09-2.14-.09c-2.18,0-4.37.05-6.56.05-2,0-4-.06-6-.06-1.67,0-3.33,0-5,0a12.61,12.61,0,0,1-2.13-.06c-1.47-.21-3,.24-4.42-.12-.11,0-.24.08-.36.07-.42,0-.58.2-.72.58a3.5,3.5,0,0,1-.72,1.14,2.54,2.54,0,0,0-.71,1.48c-.16,1.32-.31,2.64-.44,4,0,.3.09.65,0,.91A10.49,10.49,0,0,0,122,18c-.34,2.29-.55,4.59-.83,6.89-.17,1.44-.34,2.88-.56,4.31a2.06,2.06,0,0,0,.26,1.41,19.08,19.08,0,0,1,.8,2c.7.27.92,1.19,1.51,1.86a5,5,0,0,0,.85.21.91.91,0,0,1,.82.76,8.49,8.49,0,0,1,.37,1.91,2.24,2.24,0,0,0,.5,1.25,6.85,6.85,0,0,1,1.45,3.08c.06.43.35.56.67.65s.57,0,.82.12a1.2,1.2,0,0,0,1.46-.51c.55-.69.69-.69,1.49-.26a2.27,2.27,0,0,0,2.37.06c.48-.27,1-.54,1.46-.76,1.47-.65,3-1.23,4.42-1.91a14,14,0,0,1,7-1.46A12.37,12.37,0,0,0,148.22,37.52Zm-9.75,96c-.23.73.22,1.28.3,1.87a10.5,10.5,0,0,0,1.39,4c.27.48.48.61,1,.35s1.21-.73,1.82-1.1,1.46-.88,2.21-1.31a1.34,1.34,0,0,1,.54-.12,5.83,5.83,0,0,0,1.93-.67l.32-.2,5.17-3.51a1.58,1.58,0,0,1-.1-.6c0-.18.21-.44.37-.47a.86.86,0,0,1,.65.18c.14.12.15.39.22.6.15.48.36,1,.87,1.13a7.32,7.32,0,0,1,2.37,1.18s.11,0,.24,0c.17-.39.35-.82.55-1.24a12.1,12.1,0,0,1,.9-1.8c.59-.83,1.28-1.59,1.93-2.39a1.3,1.3,0,0,0,.28-.46,1.7,1.7,0,0,1,1.86-1.42,2.18,2.18,0,0,0-1-1.78c-.29-.21-.74-.34-.57-.83s.53-.39.93-.34a2.42,2.42,0,0,0,1-.16.7.7,0,0,0,.38-.46c0-.73,0-1.47-.07-2.21a3.13,3.13,0,0,1,0-.44c0-.74.12-1.49.13-2.23,0-2,0-4.07,0-6.11,0-.12,0-.25,0-.37,0-.76,0-1.52,0-2.29s-.07-1.78,0-2.67c0-1.78.16-3.55.19-5.32,0-2,0-3.91,0-5.86a1.8,1.8,0,0,1,.79-1.58c.33-.25.71-.5.73-1-.25-.1-.48-.21-.71-.28-.55-.16-1.06-.32-1.11-1.06,0-.18-.29-.37-.48-.51a1.78,1.78,0,0,0-2,0c-.73.39-1.47.78-2.22,1.11-.59.25-1.22.39-1.81.62a1.24,1.24,0,0,1-1.63-.42c-.28-.38-.53-.77-.8-1.15-.38-.53-.45-.53-1.06-.21a1.92,1.92,0,0,1-.74.32,8.77,8.77,0,0,1-1.33-.16,1,1,0,0,0-1.05.44,4.17,4.17,0,0,1-.71.85,2.23,2.23,0,0,1-.9.37c-.14,0-.33-.15-.49-.24a1.6,1.6,0,0,0-1.38.09c-.39.41-.13.81.06,1.2.11.22.23.43.37.69l-2.3,2.81a6.16,6.16,0,0,0-.22.88,2.77,2.77,0,0,1-2.36,2.64,11,11,0,0,0-1.14.44c.28.65.52,1.18.76,1.72a1.18,1.18,0,0,1-.31,1.57c-.52.51-.55.56-.14,1.17a.72.72,0,0,1,.09.84,4,4,0,0,0-.22.81,8,8,0,0,1,.85,1.84,7.26,7.26,0,0,0,.62,1.93,2.23,2.23,0,0,1,.25,1.06c-.19,2.06-.45,4.12-.63,6.18a9.26,9.26,0,0,0,0,2.41,7.85,7.85,0,0,0,.75,1.78,20,20,0,0,1,1.13,3.6,9.54,9.54,0,0,1,.11,1.16c-.44.14-.81.29-1.19.38-1.84.44-3.69.85-5.52,1.29a.89.89,0,0,0-.57.41,1.64,1.64,0,0,0,.33,1.38c.26.38.62.21.94.11a2.46,2.46,0,0,1,1.51-.14c.26.85.15,1.12-.61,1.36C139.41,133.3,138.93,133.41,138.47,133.53Zm27-43.48c-1.07,1.37-.77,2.39.82,2.88.17.06.37.07.54.13a2.05,2.05,0,0,1,.56.31c.32.25.3.47,0,.75-.54.46-1,.95-1.61,1.39a1.44,1.44,0,0,0-.55,1.2c0,2.41-.1,4.82-.12,7.23,0,3.26,0,6.52,0,9.77,0,.53,0,1.06,0,1.58,0,1.54-.08,3.08-.1,4.62,0,1.11,0,2.21,0,3.32,0,.8-.11,1.62.73,2.12,0,0,0,.12.06.22l-.5.78.77,1.23c.62-.64,1.16-1.22,1.72-1.78a4.32,4.32,0,0,1,2.17-1.35,36.15,36.15,0,0,1,3.9-.28,4.45,4.45,0,0,1,1.46,0,2.37,2.37,0,0,0,1.88-.17,3.24,3.24,0,0,1,1-.25c.83-.05,1.67,0,2.5-.08s1.71-.18,2.57-.25c.7,0,1.4-.06,2.11-.08a3.62,3.62,0,0,0,.12-.71c0-.89-.13-1.78-.11-2.67a2.88,2.88,0,0,0-.46-2,1.08,1.08,0,0,1-.12-.63c0-.74,0-1.49,0-2.23,0-2.1.07-4.2.08-6.3,0-1.73,0-3.46,0-5.19,0-2,0-3.95,0-5.93q0-3.58,0-7.17c0-1.54,0-3.09,0-4.64,0-.73-.14-.85-.89-.88l-.37,0c-1.69,0-3.39,0-5.08,0-1.15,0-2.29,0-3.43-.06a1.07,1.07,0,0,0-1.19,1,1.25,1.25,0,0,0,.14.78,1.52,1.52,0,0,1,0,1.58c-.24.45-.66.34-1.06.32a12.84,12.84,0,0,1-1.65-.08,1.25,1.25,0,0,0-1.46.51,1,1,0,0,1-1.3.37,1.09,1.09,0,0,0-1.21.19A1.73,1.73,0,0,1,165.49,90.05ZM98.16,126.86c.06-.89.12-1.6.14-2.31,0-1.14.06-2.29.06-3.43a1.36,1.36,0,0,0-.23-.76c-1.06-1.29-2.15-2.56-3.22-3.84a11.35,11.35,0,0,1-1.69-2.19,30.18,30.18,0,0,1-2-4.9c-.33-1.22-.83-2.4-1.23-3.6-.83-2.53-1.66-5-2.45-7.59a1.29,1.29,0,0,0-.85-.89c-.55-.21-1.1-.42-1.66-.59a75.89,75.89,0,0,0-7.85-2.15C73.79,94,70.4,93.09,67,92.31c-1.32-.3-2.67-.52-4-.92a4.34,4.34,0,0,0-3.37.48c.19.15.29.3.39.3a6.12,6.12,0,0,0,.82-.14c.23,0,.55-.18.7-.07a5.55,5.55,0,0,1,1.5,1.2,27.81,27.81,0,0,1,1.71,2.77,1.5,1.5,0,0,1-.62,2.33,12.44,12.44,0,0,0-1.72,1.26c-.58.53-.5,1,.17,1.41.13.08.28.12.41.19a16.84,16.84,0,0,0,3.54,1.08c.29.08.71.17.81.38a3.16,3.16,0,0,1,.44,1.85,3.23,3.23,0,0,1-1.34,1.94,1.4,1.4,0,0,0-.49,1.39,10.64,10.64,0,0,1,.41,3.08s0,0,.12.16l1.2-.2a1,1,0,0,1,1.17,1.25c-.12.42-.27.83-.39,1.24a.89.89,0,0,0,.7,1.27l.17,0c.46.09.92.17,1.37.28a1.91,1.91,0,0,1,1.51,1.83,6.07,6.07,0,0,0,.14,1.82,7.8,7.8,0,0,0,1.14,1.89c.46.63.71.66,1.28.13,1-.93,2.32-.87,3.51-1.19a5.84,5.84,0,0,1,1.57-.07c1.17,0,2.35,0,3.52.13a1.87,1.87,0,0,1,1.29.59,3.78,3.78,0,0,0,2.36,1.34,4.07,4.07,0,0,1,1.87,1.26,3,3,0,0,0,1.17.85,2.24,2.24,0,0,1,1.36,1.41,4.71,4.71,0,0,0,.62,1.12c.27.37.67.65.92,1a7.27,7.27,0,0,0,2.88,2.22c.76-.5.17-1.33.56-1.94Zm27.57-19a3.42,3.42,0,0,1,.75-.15c1.24,0,2.48,0,3.71.05a1.28,1.28,0,0,0,1.32-.66,2.28,2.28,0,0,1,.77-.57c.21-.12.5-.12.66-.27.44-.42.92-.27,1.38-.15a4.31,4.31,0,0,1,.77.32,17.91,17.91,0,0,1,2.4,1.2c.65.44,1.15,1.11,2,1.31.16,0,.27.25.41.37l1.53,1.3c.63-.48.25-.88,0-1.12a1.25,1.25,0,0,1-.45-1.48,1.74,1.74,0,0,0-.2-1.5c-.37-.65-.26-1,.3-1.45l.52-.44c-.26-.67-.56-1.32-.78-2a.86.86,0,0,1,.57-1.25c.45-.19.92-.35,1.39-.5A1.88,1.88,0,0,0,143.93,98a1.31,1.31,0,0,1,.25-1.6,5.29,5.29,0,0,1,.81-.76.83.83,0,0,0,.39-.87c0-.27-.07-.55-.09-.76a7,7,0,0,1-.83-.56.81.81,0,0,0-1.1-.08c-.58.41-1.18.8-1.73,1.25s-.91.52-1.42-.18a7.08,7.08,0,0,0-1.33-1.77,15.65,15.65,0,0,1-2.21-2.09,1,1,0,0,0-.55-.28c-1.15-.07-2.29-.11-3.43-.13a.57.57,0,0,0-.46.24c-.19.52-.64.69-1.15.85-.07,1.19,1,1.77,1.29,2.79l-.37.5a11.31,11.31,0,0,0-1.44,0c-.21,0-.54.21-.57.37-.11.62-.55.57-1,.6-.65.05-.68.08-.71.72s0,1,0,1.49a.84.84,0,0,1-.78,1c-.45.1-.91.2-1.35.32a22.17,22.17,0,0,1-4.46,1.09c-1.22.06-2.45.07-3.67,0-2.57,0-5.14-.12-7.7-.19-1.11,0-2.23,0-3.33-.14a3.18,3.18,0,0,0-1.56.14c.17,5.41-.24,10.82-.15,16.28l.85,0,3.79.08c1.09,0,2.17,0,3.25.07a1.38,1.38,0,0,1,1,.41,1.34,1.34,0,0,0,1.21.51c1,0,2,0,3,0,2.65.1,5.3.22,8,.33.53,0,.77-.16.79-.67s0-1.18,0-1.77-.23-.64-.67-.72c-.91-.17-.91-.24-.89-1.16C125.68,111.69,125.69,109.89,125.73,107.89Zm4.53-29.46a9.14,9.14,0,0,1-1.2.16c-1,0-2-.12-3-.13-1.26,0-2.52.07-3.78.06-1.73,0-3.46-.08-5.19-.11l-4.91-.07-7.26-.11-2.6,0c-.58,0-1.17,0-1.75.06a.58.58,0,0,0-.61.58c0,1.27,0,2.54-.07,3.8,0,.59,0,1.17,0,1.76s.17.94.71,1c.93.05,1.86.07,2.78.1.15,0,.37,0,.44,0a3.07,3.07,0,0,0,2.31.7c.1,0,.2.11.35.19-.22,1.34.11,2.74-.54,4a.91.91,0,0,0,0,.37c0,.74.06,1.48.05,2.22,0,1.49.24,3-.35,4.47-.43,1.07,0,1.47,1.13,1.5l8.22.23c2,.06,4.09.09,6.14.13a2.81,2.81,0,0,0,.65,0c1.62-.41,3.24-.82,4.85-1.27.74-.2.73-.25.72-1,0-.38,0-.75,0-1.12,0-1.22.06-1.27,1.32-1.37a1.43,1.43,0,0,0,.35-.12c-.1-1.24,1.18-.45,1.56-1-.22-.85-.39-1.63-.62-2.39-.15-.48,0-.68.45-.83s1-.23,1.21-.77c.07-.15.43-.19.67-.23a4.82,4.82,0,0,1,.65,0c.61,0,.7,0,.72-.68.06-2,.49-4,.42-6-.06-1.64.07-3.28.09-4.93a9,9,0,0,0-.14-1.15h-3.41Zm-26,37.44c0-1.56.11-3.09.13-4.62,0-2.72.06-5.43.07-8.15,0-1.94,0-3.89,0-5.83a6.06,6.06,0,0,1,.25-1.24c0-.15.18-.28.18-.41,0-1.36,0-2.73,0-4.09a18.7,18.7,0,0,1,.11-2.12c.06-.51.27-1,.32-1.52.06-.69-.07-.77-.78-.8-.35,0-.81,0-1-.19a1.82,1.82,0,0,0-1.43-.45c-.74,0-1.49,0-2.23,0s-1-.26-1-.94,0-1.35,0-2c0-1.48.06-3,.1-4.44,0-.48-.16-.79-.66-.85a3.1,3.1,0,0,0-.73-.09,23.78,23.78,0,0,1-4.62,0,2,2,0,0,0-1.22.2l-.66,7.28H88c-.47,1.08-.47,1.08-1.55,1.06h-.38a.56.56,0,0,0-.71.55,6,6,0,0,0,.15,1.64c.25.89.61,1.74.9,2.62.5,1.5,1,3,1.47,4.5l2.68,8.17c.67,2.06,1.28,4.13,2,6.16a15,15,0,0,0,1.84,4c.64.83,1.28,1.65,1.94,2.46.82,1,1.64,2,2.5,3,.59.67,1.24,1.3,1.88,1.92a1.18,1.18,0,0,0,1.18.44c0-.82.11-1.67.14-2.51,0-1,0-2.09,0-3.13a.89.89,0,0,1,.59-.89C103.16,115.75,103.59,116.15,104.25,115.87ZM132.5,130l1.18-.23c1-.18,2.06-.14,2.29-1.49a.69.69,0,0,1,.53-.4c.18,0,.39.25.51.44a4.17,4.17,0,0,1,.34.79c.3,0,.54,0,.78-.09,1.53-.35,3.06-.74,4.6-1.07,1.21-.26,1.22-.23.9-1.42a1.67,1.67,0,0,0-.13-.28c-.37,0-.8,0-1.23,0-2,0-4,.09-6,.09-1.69,0-3.39,0-5.08-.06a1.18,1.18,0,0,0-.37.05c-.74.21-1.49.4-2.22.64-.57.18-1.12.43-1.59-.18-.06-.07-.23,0-.35-.06-.82-.11-.92-.2-.87-1.08.13-2.13-.3-4.23-.35-6.35a2.52,2.52,0,0,0-.21-.64,16,16,0,0,1-3.6-.21,1.31,1.31,0,0,0-.28,0c-2.2,0-4.4,0-6.59-.07a1.43,1.43,0,0,1-.93-.31,1.7,1.7,0,0,0-1.35-.49l-4.55-.14c-.83,0-1.67,0-2.5-.07-.49,0-1-.14-1.46-.2l-.9-.11c-.06,2.24-.12,4.35-.19,6.48a1.66,1.66,0,0,1-1.74-.39,5.34,5.34,0,0,0-.9-.66c-.24-.16-.51-.28-.9-.49,0,.62,0,1.07,0,1.51,0,1.21-.11,2.41-.14,3.61,0,.75-.07.81-.83.9l-.37.07c-.68.13-.85.28-.83.89,0,1,.16,1.13.79,1.25s1.14.18,1.71.29a7.43,7.43,0,0,1,1.79.66c.57.26,1.41-.06,2,.19,1.09.48,2.12.08,3.21.12a7.45,7.45,0,0,1,.39-.75c.21-.31.5-.53.86-.28a4.1,4.1,0,0,0,3.23.34,6.7,6.7,0,0,1,.74,0l.62,1.2,1.69-.48c0-.26,0-.47,0-.68-.1-.88.1-1.07,1-.89.12,0,.24.08.36.09.66.09,1.29.34,2-.13a6.09,6.09,0,0,1,1.56-.57,1.74,1.74,0,0,0,1.36.55c.35,0,.74.14,1.14.1a.78.78,0,0,1,.93.7.74.74,0,0,0,.8.63c.39,0,.43-.33.52-.65.22-.72.58-.78,1.1-.18a.89.89,0,0,0,.86.43,4.87,4.87,0,0,1,.82.1,6.29,6.29,0,0,1,.43-1,1,1,0,0,1,.61-.46.84.84,0,0,1,.67.36c.46.79.46.81,1.34.58l.86-.22c.25-.48.14-1.11.89-1.2S132.2,129.61,132.5,130Zm10.69-4.95c-.23-.63-.42-1.21-.66-1.77a5.92,5.92,0,0,1-.66-2.5c0-.88.11-1.77.2-2.65.17-1.63.37-3.25.54-4.87a1.27,1.27,0,0,0-.91-1.32,2.3,2.3,0,0,1-1-.69,5.2,5.2,0,0,0-1.47-1.27,9.85,9.85,0,0,1-2.3-1.49,9.59,9.59,0,0,0-2.17-1c-.69-.35-1.32.15-2,.1-.25,0-.55.43-.8.69s-.48.55-.91.53c-1.17-.06-2.34-.09-3.51-.14-.58,0-.79.14-.82.74s0,1.48,0,2.22v1.83c.28.08.46.15.64.18.88.15,1,.31.94,1.23,0,.61,0,1.23-.05,1.85s0,1.22-.05,1.86l-1.54.26a4.34,4.34,0,0,0-.09,1c.06.6.25,1.19.28,1.79,0,1,0,1.93,0,2.89v1.08l1-.18c.58.77,1.32.61,2.12.26a3.88,3.88,0,0,1,1.43-.29c3.68,0,7.36,0,11-.08A3.76,3.76,0,0,0,143.19,125.09Zm-29.8,19.3c.57-.07.51-.49.59-.8.33-1.15.49-2.37,1.48-3.23.15-.14.16-.45.22-.68.09-.41,0-.93.27-1.22.68-.86.36-2,1-3-.64,0-1.21.08-1.49-.5s-.45-.92-.68-1.4a2.22,2.22,0,0,1-.51.19,20.58,20.58,0,0,0-4.09,1.17,1.27,1.27,0,0,0-1.06.88c.87,0,1.24.53,1.57,1.21a22.71,22.71,0,0,1,1,2.4c.54,1.53,1.5,2.9,1.63,4.58A1.2,1.2,0,0,0,113.39,144.39Zm8.26,3.16c-.26.27-.47.54-.72.77a1.43,1.43,0,0,1-2.31-.2c-.19-.24-.4-.46-.65-.76.2-.22.34-.49.56-.6s.41-.41.2-.64a.76.76,0,0,0-.65-.05,2.58,2.58,0,0,0-.77.51.57.57,0,0,0-.16.48,2.74,2.74,0,0,1,0,1.7,3.89,3.89,0,0,0,.14,1.15c2.25-.46,4.47-.54,6.54-1.48a1.24,1.24,0,0,0-.21-.45C123.05,147.42,122.28,147.91,121.65,147.55ZM135.84,140l-.45.65a1.58,1.58,0,0,0-.15.24c-.18.44,0,1,.33,1a16.92,16.92,0,0,0,1.74.24c.53,0,.75-.22.65-.73,0-.15-.1-.29-.15-.44-.31-.83-.37-.87-1.26-.88A5.72,5.72,0,0,1,135.84,140Zm-20.13,9.78c.09-.37-.2-.48-.44-.62a1.46,1.46,0,0,1-.79-1.2c0-.77-.57-1.09-1.06-1.5a2.84,2.84,0,0,0-.6,1.9A2.69,2.69,0,0,0,115.71,149.77Zm33.47-4-.2-.15a6.77,6.77,0,0,0-1.51.45,1.18,1.18,0,0,1-1,.22,2.57,2.57,0,0,0-.68,0,3.45,3.45,0,0,1,.52.92,3.72,3.72,0,0,1-.11,1.1,4.35,4.35,0,0,0,2.71-2A2.19,2.19,0,0,0,149.18,145.79Zm-84-15.12c-.16-.12-.36-.26-.55-.42-.49-.44-.8-.46-1.26,0a1.31,1.31,0,0,0-.46,1.11l1.28.92Zm155-27.3c-1.29.63-1.36,1-.47,1.78.11.1.22.26.35.28a.79.79,0,0,0,.57-.07.49.49,0,0,0,0-.47A1.57,1.57,0,0,1,220.18,103.37Zm-101.95,36.3a2.63,2.63,0,0,0-.94,2.35,1,1,0,0,0,.61,1.06C118,142,118.11,140.89,118.23,139.67ZM115.75,144c-.57.47-.81,1-.58,1.52a1.2,1.2,0,0,0,1.47.77,8.66,8.66,0,0,1-.64-1.08A9.45,9.45,0,0,1,115.75,144Zm17.72-2.1c-.58.4-.94.68-1.33.91a1.47,1.47,0,0,0-.93,1.07,3.46,3.46,0,0,0,2.24-1.23C133.55,142.6,133.47,142.33,133.47,141.94Zm12.35,7.69c-.48-.12-.87-.34-1.07-.23s-.35.55-.42.86a.55.55,0,0,0,.23.51.71.71,0,0,0,.64-.09A6,6,0,0,0,145.82,149.63Zm-29.41-8.45c-.69.23-.94.59-.92,1s.27.61.81.61Zm4.12,2.42c-.34.42-.44.69-.16,1a1.11,1.11,0,0,0,1.32.42Zm-.44,2.05-.23.1.34,1.64.87-1.12Zm5.87,2a5,5,0,0,0,.9-.11c.22-.06.39-.31.14-.47a1.32,1.32,0,0,0-.77-.09C126,147,125.81,147.21,126,147.65Zm-1.73-3.22c-.71-.57-.79-.58-1.2-.13C123.35,144.76,123.71,144.84,124.23,144.43ZM66.64,131.68c-1.06.22-1.09.27-.68.83Zm36.35,1.1c-.28-.62-.61-.57-1-.13Zm37.76,18.65c.38-.05.55-.22.38-.56,0-.09-.31-.18-.37-.13C140.47,151,140.6,151.19,140.75,151.43Z" transform="translate(-2.82 -4.9)"/></svg>