<svg id="Layer_1" data-name="Layer 1" xmlns="http://www.w3.org/2000/svg" viewBox="0 0 512 512"><defs><style>.cls-1{fill:#ffc50f;}</style></defs><title>one-way</title><path class="cls-1" d="M512,256a8.73,8.73,0,0,0-2.56-6.18L262.18,2.56a8.74,8.74,0,0,0-12.36,0L2.56,249.82a8.75,8.75,0,0,0,0,12.36L249.82,509.44a8.75,8.75,0,0,0,12.36,0L509.44,262.18A8.73,8.73,0,0,0,512,256Zm-21.1,0L256,490.89,21.1,256,256,21.1Z" transform="translate(0 0)"/><path class="cls-1" d="M333.73,287a8.76,8.76,0,0,0-7.79-4.78H291V142.35a8.75,8.75,0,0,0-8.74-8.74H229.77a8.75,8.75,0,0,0-8.74,8.74V282.22h-35A8.75,8.75,0,0,0,179,296.11l69.94,96.16a8.74,8.74,0,0,0,14.14,0L333,296.11A8.76,8.76,0,0,0,333.73,287Zm-51.5,12.71h26.54L256,372.26l-52.77-72.55h26.54a8.74,8.74,0,0,0,8.74-8.74V151.1h35V291a8.75,8.75,0,0,0,8.75,8.74Z" transform="translate(0 0)"/></svg>