<?xml version="1.0" encoding="utf-8"?>
<!-- Generator: Adobe Illustrator 23.1.0, SVG Export Plug-In . SVG Version: 6.00 Build 0)  -->
<svg version="1.1" id="Layer_1" xmlns="http://www.w3.org/2000/svg" xmlns:xlink="http://www.w3.org/1999/xlink" x="0px" y="0px"
	 viewBox="0 0 791.7 554.3" style="enable-background:new 0 0 791.7 554.3;" xml:space="preserve">
<style type="text/css">
	.st0{opacity:0.39;fill:#515151;enable-background:new    ;}
	.st1{fill:#FFFFFF;stroke:#000000;stroke-width:0.2;stroke-miterlimit:10;}
</style>
<title>toronto-map</title>
<polygon class="st0" points="0,46.4 16.1,88.4 8,97.1 13.2,98.9 14.2,98 17.2,101.9 17.2,105.6 20.6,107.4 24.2,106.1 24.2,107.4 
	22.9,113 24.2,113.7 22.7,115.1 26.9,118.9 26.9,120 28,120.6 27.2,122.1 29.2,122.1 28.5,124.5 30.1,125.4 28.8,126.4 30.1,126.9 
	31,128.7 33.4,125.6 36.4,125.6 39.5,124.7 41.9,124.7 42.7,124.7 42.7,122.9 45.8,122.9 46.9,120.9 46.9,119.7 48.3,119 
	49.4,119.4 51.2,115.9 51.2,114 52.1,113.5 53.8,114.6 55.8,110 57.8,109.8 56.9,108.3 55.8,108.3 54.1,109.8 56.2,105.9 
	57.8,104.6 60.5,102.8 62.8,102.8 64.5,103.5 66.5,104.1 68.4,104.7 71,106.5 73.8,106.8 74.5,107.8 76,108.1 77.8,107.4 
	78.8,105.2 81.1,104.9 80.5,106.7 80.1,108 80.3,108.9 81.8,108.6 84.5,113.1 84.5,114.6 85.5,115.7 87.6,115.7 91.7,113.3 
	94.9,111.5 97.6,108.1 98.6,107.1 99.4,107.1 98.3,105 96.8,105.7 94.4,108.9 92.8,109.8 91.1,109.7 87,108.4 86.3,107.1 
	86.3,106.1 84.2,105.9 83.6,104.1 89.2,103.1 96.1,99.6 99.4,104.4 100.7,105.9 102.8,103 104.6,103 104.6,101.9 106.6,98.7 
	109.7,99.9 107.8,104.7 107.5,106.1 106.5,105.5 102.7,107.8 103.6,110.2 102.3,109.6 101.1,112.7 101.4,116.2 102.3,112.4 
	103.8,112.4 104.4,111.4 105.3,111.7 106.3,108.9 107.7,108.3 107.9,107.1 108.9,107.4 109.7,105.2 109.1,104.6 110.3,99.9 
	111.1,95.5 112,94.3 114,96.2 114.7,95 115.6,94.9 115.6,93.9 115.6,92.7 114.5,92.1 117.9,90.9 119.3,90.5 126.2,87.5 132.5,76.8 
	138.8,72.7 140.5,73.6 140.5,72.4 142.2,72.5 143.3,70.9 144.4,71 144.4,69.1 143.7,67.8 144.4,65.6 147.1,63.5 150.5,58.1 
	152.9,56.7 156.1,53.3 161.5,49.3 165.6,47.3 169.9,46.4 171.8,43.9 176.3,40 179.4,35.2 181.6,30.6 183.7,29.2 181.2,29.2 
	181.1,28.2 180,28.2 179.9,26.8 178,26.1 176.8,26.1 176.8,23.6 174.9,22.4 172.7,22.4 171.9,20.3 170.5,19.1 164.7,0 "/>
<polygon class="st1" points="1.9,46 17.8,87.5 9.9,96.1 14.8,97.8 15.9,96.9 18.9,100.8 18.9,104.4 22.3,106.2 25.7,105 25.7,106.2 
	24.5,111.9 25.7,112.6 24.4,113.9 28.5,117.6 28.5,118.7 29.6,119.3 28.8,120.8 30.8,120.8 30.1,123.2 31.7,124 30.4,125.1 
	31.7,125.5 32.5,127.3 34.8,124.2 37.9,124.2 40.9,123.3 43.3,123.3 44.1,123.3 44.1,121.6 47.2,121.6 48.3,119.6 48.3,118.4 
	49.7,117.7 50.7,118.1 52.5,114.7 52.5,112.8 53.4,112.4 55,113.4 57,108.9 59,108.6 58.2,107.1 57,107.1 55.3,108.6 57.5,104.7 
	59,103.4 61.7,101.8 63.9,101.8 65.6,102.5 67.6,103 69.5,103.6 72.1,105.3 74.8,105.7 75.5,106.6 77,107 78.7,106.3 79.8,104 
	82,103.8 81.4,105.6 81.1,106.9 81.2,107.7 82.7,107.5 85.4,111.9 85.4,113.4 86.4,114.4 88.4,114.4 92.5,112.2 95.6,110.3 
	98.3,107 99.3,105.9 100.1,105.9 99.1,103.9 97.5,104.6 95.2,107.7 93.5,108.6 91.9,108.5 87.8,107.2 87.1,105.9 87.1,105 
	85.1,104.7 84.5,103 90.1,102.1 96.8,98.6 100.1,103.3 101.4,104.7 103.4,102 105.2,102 105.2,100.8 107.2,97.6 110.3,98.8 
	108.4,103.6 108.2,105 107.1,104.4 103.3,106.6 104.3,109 102.8,108.4 101.8,111.6 102.1,114.9 102.8,111.2 104.5,111.2 
	105.1,110.2 105.9,110.5 107,107.7 108.3,107.1 108.5,105.9 109.4,106.3 110.3,104 109.7,103.4 110.9,98.8 111.7,94.5 112.5,93.3 
	114.5,95.2 115.2,94 116.1,93.9 116.1,93 116.1,91.7 115,91.1 118.4,90 119.7,89.6 126.6,86.6 132.9,76 139,72 140.8,72.9 
	140.8,71.6 142.4,71.8 143.5,70.2 144.5,70.4 144.5,68.5 143.8,67.2 144.5,64.9 147.3,62.9 150.6,57.6 152.9,56.2 156.1,52.9 
	161.4,48.9 165.5,46.8 169.7,46 171.6,43.5 176.1,39.6 179.2,34.9 181.3,30.4 183.4,29 181,29 180.9,28.1 179.7,28.1 179.6,26.6 
	177.7,25.9 176.6,25.9 176.6,23.4 174.7,22.3 172.5,22.3 171.7,20.3 170.3,19.1 164.6,0.2 "/>
</svg>
