<svg id="Layer_1" data-name="Layer 1" xmlns="http://www.w3.org/2000/svg" viewBox="0 0 397 275.5"><defs><style>.cls-1{fill:#fff;}.cls-2{fill:#303030;}</style></defs><title>toronto-map</title><rect class="cls-1" width="397" height="275"/><path class="cls-2" d="M358.61,5.32c1,3.2,1.92,6.24,2.84,9.28,1.12,3.69,2.25,7.38,3.33,11.09,1.31,4.44,2.57,8.9,3.88,13.35.4,1.37.9,2.71,1.31,4.08.36,1.21.6,2.47,1,3.66a4.44,4.44,0,0,0,2.41,2.76,7.17,7.17,0,0,1,2.11,1.79c.38.41.56.76,1.16.33.41-.29.84-.1,1.19.28A6.09,6.09,0,0,0,380.52,54a4.19,4.19,0,0,0,1.29.24,2.67,2.67,0,0,1,2.74,3.28,2.81,2.81,0,0,0,.06,2.37,2.44,2.44,0,0,1,.09.85c1.29-.26,2.23.45,3.2,1.14a2.16,2.16,0,0,0,1.69.54,1.76,1.76,0,0,1,1.73,1.15c.18.36.17.81.34,1.17s.36.61.6.65a2.82,2.82,0,0,1,2.28,2.31.88.88,0,0,0,1.13.79,5.56,5.56,0,0,1,1.35,0,6.18,6.18,0,0,1,1.16.44c-.3.39-.42.67-.63.81a9.71,9.71,0,0,0-3.76,4.11c-.85,1.76-1.92,3.43-2.93,5.11a51.6,51.6,0,0,1-2.84,4.4c-1.35,1.79-2.88,3.44-4.31,5.17-.84,1-1.56,2.13-2.44,3.09-1.26,1.4-2.66,2.67-3.93,4.05-.92,1-2,1.86-2.9,2.81a34.94,34.94,0,0,0-3.25,4.33c-.24.33-.4.72-.65,1a3.3,3.3,0,0,1-3.19,1.61,9.62,9.62,0,0,0-4.79.82c-1.15.47-2.45.59-3.6,1.06-2.08.84-4.12,1.81-6.16,2.76a16.55,16.55,0,0,0-2.35,1.34c-1.19.81-2.33,1.69-3.5,2.55s-2.34,1.65-3.47,2.54a26.84,26.84,0,0,0-4.09,3.68,13.06,13.06,0,0,1-2,2.23,11.18,11.18,0,0,0-2.33,2.38,22.6,22.6,0,0,1-3,2.81,2.74,2.74,0,0,1-.86.46,9.42,9.42,0,0,0-4.28,3.53c-.86,1.19-1.7,2.4-2.55,3.6-1.24,1.78-2.51,3.54-3.69,5.36a9,9,0,0,1-1.93,2.15,36.27,36.27,0,0,0-2.89,2.66,10.14,10.14,0,0,0-2.55,4.78l1.16.6c.06.46.1,1,.2,1.59a1.41,1.41,0,0,1-.47,1.43,1,1,0,0,0-.25,1.44.39.39,0,0,1,.06.11c.45,1.39-.18,2.1-1.69,1.86a2,2,0,0,0-.55,1.53c0,1.1-.48,1.35-1.51.93a3.25,3.25,0,0,0-.92-.22,6.3,6.3,0,0,1-1.8-.33,7.6,7.6,0,0,0-1,.84c-.33.38-.55.82-.12,1.32a1.25,1.25,0,0,1,.3.78,1.67,1.67,0,0,1-.39,1.09,1.2,1.2,0,0,1-1.12,0,2.93,2.93,0,0,0-1.77-.7c-.27,0-.52-.34-.79-.52-1.44.37-2.4,1.5-3.59,2.27a40.4,40.4,0,0,0-3.35,2.29,12.86,12.86,0,0,1-2.67,1.7,11.35,11.35,0,0,0-4.75,4.83,24.68,24.68,0,0,1-1.7,2.39c-.77,1-1.56,2-2.35,3-.36.44-.79.82-1.14,1.27-.92,1.19-1.85,2.38-2.71,3.62-1.33,1.91-2.62,3.84-3.9,5.79-.55.85-1,1.76-1.52,2.64-.12.21-.19.55-.37.61-.8.28-1.47.85-2.29,1.11-1.4.45-2.8.89-4.15,1.46s-2.59.94-3.9,1.37c-1.05.33-2.12.72-2.38,1.94a1.21,1.21,0,0,1-.34.09c-1.84-.25-3.48.48-5.15,1.06-1,.34-2,.64-2.91,1a3.21,3.21,0,0,0-1.77,2.18,9.39,9.39,0,0,1,1.55.26c.92.32,1.15.91.61,1.7a1.52,1.52,0,0,0-.06,1.8c.55,1.05.18,1.56-1,1.58-.69,0-1,.28-1.22,1.14-.12.41-.28.81-.49,1.38-.49-.31-.81-.54-1.15-.72a6.13,6.13,0,0,1-2.4-2.39,2.07,2.07,0,0,0-1-.67,1,1,0,0,0-1.43.75,8.64,8.64,0,0,1-1.27,3.28,9.83,9.83,0,0,0-.86,3.17c-.22,1.28-.36,2.58-.55,3.87a8.06,8.06,0,0,1-.28.92c-.31,1.09-.82,2.13-.44,3.33a2.14,2.14,0,0,1-.16,1.09c-.49,1.77-1,3.53-1.49,5.31a1.36,1.36,0,0,0,.45,1.45,1.1,1.1,0,0,1,.31,1.41,11,11,0,0,0-.49,2.13c-.2,1.31-.77,1.65-2.15,1.24-.45-.52.41-1.31-.4-1.82-.38.62-.82,1.16-.63,1.93a.42.42,0,0,1-.06.35,10.68,10.68,0,0,1-1.79,1.88,6.13,6.13,0,0,0-2.89,3.66c-.12.51-.27,1-.4,1.54-.25,1-.62,1.2-1.61,1s-1.09-.2-1.32.87c-.1.43-.26.85-.42,1.38-.44,0-.84,0-1.23,0-1.13-.11-1.58.17-1.89,1.22-.1.35-.2.71-.32,1.11.65.7.85,1.41,0,2.19-.22.19-.07.75-.26,1a1.72,1.72,0,0,1-1,.8.85.85,0,0,1-1-.83,5,5,0,0,1,0-1.44,2.48,2.48,0,0,0-.07-1.78,2.66,2.66,0,0,1,0-2.89,1.28,1.28,0,0,0-.08-1.88c-.25-.22-.21-1-.07-1.38a6.9,6.9,0,0,1,.89-1.45,12.25,12.25,0,0,1,.91-1.42,1.68,1.68,0,0,1,.93-.61c.48-.07.72.35.75.8.06.75.61,1.1,1.06,1.51.14,0,.24,0,.29-.09,1.19-1.13,1.11-1.65-.38-2.37a2.73,2.73,0,0,1-.84-3.19,1.11,1.11,0,0,1,.71-.4,3.07,3.07,0,0,0,2.2-1.23,4.15,4.15,0,0,1,2.09-1.38,20.13,20.13,0,0,0,2.63-1.31c1-.47,1.2-.39,1.78.55.08.13.17.25.26.38,1-.91,1.1-1.19.63-2.19-.29-.63-.26-1.26.29-1.5,1.42-.63,1.83-1.85,2.11-3.18.36-1.72.68-3.44,1.09-5.14.26-1.12.16-1.73-1.43-2a10.09,10.09,0,0,0-1.1,0,4.3,4.3,0,0,1-1.06-.19,1.56,1.56,0,0,0-1.87.45c-1.15,1.43-2.73,2.51-3.56,4.23-.17.37-.62.61-1,1,.19.22.31.37.44.51.69.7.61,1.34-.3,1.67a2.26,2.26,0,0,1-1.29.05,2.59,2.59,0,0,0-2.71.8c-1.11,1.08-2.12,2.23-3.11,3.4a9.71,9.71,0,0,0-1,1.34c-.35.61-.58.73-1.15.35a14.66,14.66,0,0,1-1.24-1c-.12-.11-.19-.3-.33-.36-1.35-.62-1.81-1.93-2.47-3.1-.76-1.32-1.57-2.6-2.29-3.93s-1.32-2.63-2-4.08a6.21,6.21,0,0,0-1.35.34c-2.55,1.23-5.07,2.51-7.61,3.76-1.84.91-3.68,1.81-5.54,2.68a3.41,3.41,0,0,1-1.06.24L187,226.5a9.54,9.54,0,0,0-1,.21c0,1.54,1,2.47,1.7,3.55a1,1,0,0,0,1.31.37c.5-.17,1-.29,1.53-.42a.76.76,0,0,1,1,.54,9.37,9.37,0,0,1,.3.94c.22.86.16,1-.72,1.39-.18.09-.34.2-.63.38l.75,1.29a1.43,1.43,0,0,1,1.85.65,2.48,2.48,0,0,0,1.82,1.23,1.85,1.85,0,0,1,1.7,1.25c.06.22.37.39.59.52a8.58,8.58,0,0,1,1.09.56,1.3,1.3,0,0,0,1.14.22,21.6,21.6,0,0,1,2.67-.06c.39,0,.72.07.93-.35s.74-.57,1.26-.39a3.81,3.81,0,0,0,1.05.31,4.09,4.09,0,0,0,3.76-2,21,21,0,0,1,1.69-2.28,33.45,33.45,0,0,0,2.93-4.35,1.82,1.82,0,0,1,.91-.68c.69-.25,1.44-.32,2.12-.59a1.06,1.06,0,0,1,1.28.47,26.91,26.91,0,0,1,2,2.67c.44.69.11,1.45-.08,2.15,0,.14-.47.23-.72.24a10.85,10.85,0,0,1-1.71,0,1.45,1.45,0,0,0-1.6,1.06,13.25,13.25,0,0,1-3.82,4.77c-.58.51-1.17,1-1.73,1.54-1,.92-1.91,1.91-2.95,2.77a15.11,15.11,0,0,1-2.1,1.25c-.21.12-.51.17-.64.34-1.1,1.58-3,2-4.47,3-1.08.76-2.52,1-3.64,1.68a11.83,11.83,0,0,1-4.78,1.31,3.7,3.7,0,0,1-3.36-.83,13.72,13.72,0,0,1-1.23-1.49,2.05,2.05,0,0,1-.09-1.87,2.32,2.32,0,0,0-.31-2.34.66.66,0,0,1-.11-.35c-.3-1.76-1.49-3-2.58-4.25-.71-.84-1.28-1.79-1.94-2.67A10.61,10.61,0,0,0,181,237a1.26,1.26,0,0,0-1.44-.31c-1,.36-1.28.07-1.65-1a1.73,1.73,0,0,1,.78-2.3,8.12,8.12,0,0,0,1-.87c-.43-1.29-.43-1.29.08-2.75-.4.05-.74.09-1.08.15s-.63.15-.95.23c-.49.12-1.11-.19-1.45.42-.53.91-1.24,1.74-1.09,2.91a1.86,1.86,0,0,1-2,2.21,2.25,2.25,0,0,0-1.12.36,4.75,4.75,0,0,1-3.91.38c-.61-.15-1.33-.15-1.75-.77a.43.43,0,0,0-.32-.16c-1.13,0-1.42-.56-1.29-1.57a.68.68,0,0,0-.75-.79c-.36,0-.73,0-1.1,0a5.06,5.06,0,0,1-1.1,0c-.79-.18-1.56-.51-2.36-.64-2.61-.42-4.53-2.24-6.81-3.32a1.45,1.45,0,0,1-.5-.67c-.53-1.09-.73-1.23-1.87-1a1,1,0,0,1-1-.28,17.84,17.84,0,0,0-1.68-1.21,1.49,1.49,0,0,0-.92-.32c-1.23.27-2.31-.4-3.49-.45a1.72,1.72,0,0,1-.79-.26,3.39,3.39,0,0,0-2.85-.22c-.57.16-1.19.18-1.78.33s-.9.35-1.36.51l-1.26.42c-.2.06-.46,0-.58.18-.7.74-1.74.93-2.47,1.54a8.66,8.66,0,0,0-1.63,2.14,7.8,7.8,0,0,1-2.92,2.43,1.91,1.91,0,0,0-.76.7c-.43,1-.8,2.06-1.13,3.12a1.07,1.07,0,0,0,.23.73c0,.06.45-.05.6-.18.46-.4,1-.59,1.43-1.17.51-.76,2-.29,2.27.61l.7,2.07c.25.73,0,1.19-.82,1.26-.33,0-.66,0-1,0-1.47,0-2.13.8-2.06,2.28a3.35,3.35,0,0,1-1.27,3,1.73,1.73,0,0,0-.88,1.87.82.82,0,0,1-.58,1.08c-.77.14-.89.6-.82,1.25a2.43,2.43,0,0,1,0,.47c-1.07.6-1.07.6-2.45-.74-.1.1-.22.21-.32.32-.57.66-.9.7-1.48.09-.4-.41-.73-.88-1.1-1.33a1.62,1.62,0,0,0-.76,2.1,3.85,3.85,0,0,1-.64,4c-1.2,1.8-2.5,3.53-3.69,5.33a1.59,1.59,0,0,1-1.71.64,2,2,0,0,0-2.35,2.34,2,2,0,0,1-.9,2.09,2.61,2.61,0,0,0-.89,1.27,3,3,0,0,1-2.84,2.1c-.25,0-.55,0-.72.08a2.05,2.05,0,0,1-2.36.31.76.76,0,0,0-1.1.64,4.16,4.16,0,0,1-.45,1l1.2,1.43c-.3.29-.48.49-.7.67-.67.56-.72.88-.31,1.68.13.26.31.77.21.84a2.19,2.19,0,0,1-1.06.41,8.93,8.93,0,0,0-2,.12,2.35,2.35,0,0,1-2.27-.48c-.4-.28-.8-.57-1.18-.87s-.51-.63,0-1.41a10.69,10.69,0,0,1,1.45.58c.66.38,1.28.07,1.88-.07a.59.59,0,0,0,.38-.88.56.56,0,0,0-.83-.25,1.82,1.82,0,0,1-2.15-.09c-.41-.31-1.32,0-2,.06-1.59.16-3.16.38-4.75.5a2.48,2.48,0,0,0-2.21,1.05c-.55.86-1,.9-2.13.49a1,1,0,0,0-1.24.16c-.42.41-.84.32-1.33.06-1.06-.56-1.43-.48-2.22.42s-1.71,1.88-2.48,2.89a10.18,10.18,0,0,0-.94,1.83,7.07,7.07,0,0,1-.47,1.13,1,1,0,0,1-.75.43.9.9,0,0,1-.61-.62,24.29,24.29,0,0,1-.35-3.06,1.82,1.82,0,0,0-.72-1.48c-.67-.52-1.29-1.12-2-1.71l.91-1.78a4.65,4.65,0,0,0-.59-.41,2.66,2.66,0,0,1-1.14-3.72,3.42,3.42,0,0,0,.33-.51c.09-.31.13-.64.22-1.12l-1.26-.23a9.56,9.56,0,0,1-1.54-.33,1.46,1.46,0,0,1-1-1.81c0-.24.06-.49.11-.72a1.19,1.19,0,0,0-.57-1.49,2,2,0,0,1-1-1.95A2.85,2.85,0,0,0,63.41,257c-1-.72-1.73-1.73-2.65-2.54a4.21,4.21,0,0,0-1.57-.88,1.48,1.48,0,0,1-1-.9,2.4,2.4,0,0,0-.83-1,2,2,0,0,1-.49-3.21c.34-.38.7-.75,1-1.09-.42-.3-.74-.54-1.08-.75a1.94,1.94,0,0,1-.9-2.48c.35-1.58,1.38-3,1-4.72a17.48,17.48,0,0,0,1.2-4.31c.06-.33.47-.65.8-.87a1.31,1.31,0,0,0,.6-1.48c0-.29-.23-.75-.42-.78a2.86,2.86,0,0,0-1.12.22c-.06,0-.12.11-.16.18a1.82,1.82,0,0,1-1.86.85,5.94,5.94,0,0,0-3,.93,1.94,1.94,0,0,1-2,.07c-2.13-1-4.26-2.06-6.39-3.1-.18-.09-.37-.17-.55-.27-1.05-.51-1.43-1.29-.87-2.31a3.94,3.94,0,0,0,.2-3.05,4.39,4.39,0,0,1,0-3.09,1.68,1.68,0,0,0-.14-1.53c-.53-1.33-1.11-2.63-1.59-4a4.52,4.52,0,0,0-1.62-2,1.29,1.29,0,0,0-1.78.13c-1.59,1.29-2.3,1.26-4.12.45a7.18,7.18,0,0,0-3.82-1.06,5.69,5.69,0,0,1-2.28-.4,1.52,1.52,0,0,1-.75-.87,19.19,19.19,0,0,1-.6-2.06c1.85-2.14,3.69-4.26,5.51-6.4s3.77-4.41,5.63-6.63c1.13-1.35,2.2-2.73,3.35-4.07a1.55,1.55,0,0,0,.28-1.71c-1-2.43-1.92-4.88-2.9-7.3-.64-1.59-1.36-3.14-2-4.73-.84-2.08-1.66-4.17-2.42-6.28-.2-.56-.07-1.24-.25-1.82-.39-1.2-.91-2.37-1.33-3.56-.66-1.85-1.22-3.74-1.94-5.56-1-2.47-2.1-4.89-3.14-7.34-.73-1.73-1.41-3.49-2.12-5.23-1.2-2.92-2.42-5.83-3.6-8.76-.45-1.09-.79-2.23-1.2-3.34-.27-.72-.58-1.43-.85-2.16-1.16-3.07-2.27-6.15-3.47-9.21-.57-1.48-1.31-2.89-1.95-4.35-.34-.79-.61-1.61-.94-2.41-.92-2.19-1.87-4.36-2.76-6.56-.76-1.9-1.44-3.83-2.2-5.73a13.5,13.5,0,0,0-1-2c-.63-1-.65-1,.22-1.77a4.59,4.59,0,0,1,3.26-1.2,16,16,0,0,0,5-1c2.48-.67,4.95-1.37,7.42-2.06.79-.22,1.56-.48,2.35-.7,1.92-.53,3.85-1,5.76-1.56,3.32-.94,6.62-1.92,9.94-2.86,1.56-.45,3.15-.83,4.72-1.25,1.34-.36,2.67-.74,4-1.11s2.52-.66,3.77-1c1.64-.5,3.26-1.1,4.91-1.56,2.06-.56,4.15-1,6.22-1.53,1.74-.44,3.46-1,5.2-1.42,2.29-.57,4.61-1.05,6.9-1.62,2-.5,4-1.1,6-1.62,2.42-.61,4.88-1.1,7.27-1.81,1.55-.45,3.23-.49,4.67-1.37a3.13,3.13,0,0,1,1.4-.42A26.15,26.15,0,0,0,102,78.83c1.88-.55,3.78-1,5.66-1.55,2.39-.71,4.76-1.48,7.14-2.2.78-.23,1.6-.34,2.38-.58,2-.62,4-1.32,6-1.93.85-.26,1.76-.34,2.62-.59,2.52-.72,5-1.5,7.54-2.24.82-.24,1.65-.43,2.48-.65L142,67.42c3-.8,5.9-1.6,8.86-2.38l8.69-2.26c1.87-.49,3.74-1,5.6-1.49,2.57-.72,5.13-1.46,7.69-2.2,3.63-1,7.25-2.09,10.88-3.09,1.7-.47,3.42-.82,5.13-1.27s3.2-.9,4.8-1.35c.75-.22,1.5-.42,2.24-.65,1.25-.37,2.49-.79,3.75-1.14,1.62-.45,3.25-.83,4.86-1.26,1.11-.3,2.2-.64,3.3-1l7.44-2.14c1.77-.52,3.53-1.1,5.31-1.6s3.87-1,5.8-1.52c1.31-.35,2.61-.74,3.9-1.15,1.8-.56,3.57-1.18,5.37-1.72,3-.91,6-1.78,9-2.65,1.21-.35,2.43-.67,3.64-1,2.63-.77,5.27-1.55,7.89-2.35,2.42-.72,4.82-1.5,7.25-2.21,1.09-.32,2.23-.47,3.32-.79,1.7-.5,3.36-1.1,5.05-1.6,2.56-.75,5.13-1.44,7.7-2.17s4.85-1.4,7.27-2.11c3.61-1.05,7.23-2.12,10.83-3.19,2.41-.72,4.81-1.46,7.21-2.19,4-1.21,7.95-2.44,11.95-3.61,2.43-.71,4.89-1.29,7.33-2,1.42-.39,2.82-.85,4.23-1.27l2.7-.76L338.84,11c2.77-.83,5.55-1.67,8.31-2.53,3.28-1,6.55-2.09,9.83-3.09A7.44,7.44,0,0,1,358.61,5.32ZM382,62.17l.88-1.22c.32-.47.71-.9.26-1.54a1.54,1.54,0,0,1-.1-.94c0-.4.2-.79.27-1.2.18-1.08-.36-1.53-1.44-1.35a2.81,2.81,0,0,1-1.44-.11,6.68,6.68,0,0,1-1.78-1.05,5.84,5.84,0,0,0-3.42-1.51c-.47,0-.92-.19-1-.76-.08-.92-.8-1.27-1.42-1.73-.82-.6-1.65-1.2-2.41-1.87a2.29,2.29,0,0,1-.52-1.07c-.4-1.38-.73-2.77-1.14-4.14-.74-2.52-1.53-5-2.27-7.54-1-3.53-2-7.07-3.09-10.6-1-3.25-2.12-6.46-3-9.75-.72-2.74-1.57-5.42-2.53-8.08-.33-.91-.52-1-1.38-.79-1.32.4-2.63.83-3.94,1.23-3,.95-6.09,1.87-9.13,2.82-3.27,1-6.52,2.11-9.81,3.07-4.09,1.2-8.21,2.31-12.32,3.45-1.31.36-2.63.67-3.93,1.06a1.2,1.2,0,0,0-.75.67,1.06,1.06,0,0,0,.58,1.24c.29.15.6.28.9.4a2,2,0,0,1,1.45,2,1.09,1.09,0,0,0,.12.46c.47,1.26.48,1.27-.61,2.07a1,1,0,0,0-.43,1.26,2.33,2.33,0,0,0,2,1.11,1.38,1.38,0,0,1,1.57.88c.27.61.49,1.25.74,1.9-.83.48-1.53.91-2.25,1.27s-1.56.72-2.36,1.05c-1.81.76-3.63,1.48-5.43,2.26-.64.28-.72.82-.3,1.4a3,3,0,0,0,.4.47,1.4,1.4,0,0,1,.48,1.75,1.62,1.62,0,0,0,0,1,13.73,13.73,0,0,0,1.44,3.89,2.37,2.37,0,0,1,.37,1,31.45,31.45,0,0,0,1.61,4.86,2.86,2.86,0,0,0,1.19,1.38,8.94,8.94,0,0,1,3.63,3.73c.52,1,1.23,2,1.07,3.18-.13.92-.43,1.82-.6,2.74a4.88,4.88,0,0,0-.14,1.81c.29,1.44.76,2.84,1.11,4.27a.8.8,0,0,0,1.07.7c.89-.17,1.78-.32,2.66-.47,3.19-.56,6.38-1.12,9.58-1.66.89-.16,1.25.17,1.39,1a26.91,26.91,0,0,0,1.06,5.3,11.75,11.75,0,0,1,1,5.14,3.47,3.47,0,0,0,.27,1.2c.56,1.88,1.14,3.76,1.7,5.64.26.86.5,1.72.75,2.58.6,2,1.26,4,1.8,6.1.4,1.5.59,3.07,1,4.57,1.15,4.17,2.36,8.32,3.56,12.47.32,1.12.7,1.2,1.68.61a46.63,46.63,0,0,1,4.46-2.51,39.63,39.63,0,0,1,4.52-1.58c.81-.26,1.7-.31,2.49-.64A13.39,13.39,0,0,1,368,104a1.3,1.3,0,0,0,.87-.35,8.66,8.66,0,0,0,1.07-1.33c.85-1.25,1.62-2.56,2.54-3.76a27.22,27.22,0,0,1,2.06-1.94c1.64-1.7,3.33-3.36,5-5a41.12,41.12,0,0,0,3.29-4.11c.4-.51.83-1,1.26-1.48.81-.92,1.38-2.06,2.2-2.89a27.92,27.92,0,0,0,3.31-4.85c1.66-2.58,2.88-5.43,4.83-7.83.42-.51.21-.93-.45-1-.12,0-.25,0-.37,0-1.18-.13-1.4-.48-1-1.56.27-.71.07-1.1-.64-1a2.07,2.07,0,0,1-2-.89,8.25,8.25,0,0,0,.22-.92c.12-.65-.21-1.31-.77-1.28a4.11,4.11,0,0,1-2.86-1.22,1.34,1.34,0,0,0-1.69-.21c-.28.17-.6.26-.89.42C383.05,63.33,382.76,63.26,382,62.17ZM88.07,156.72c-.27-.55-.43-1-.66-1.34a2.58,2.58,0,0,0-3.13-1.33c-.2,0-.38.17-.58.21a1.08,1.08,0,0,1-1.31-1.39c.08-.44.23-.87.29-1.31a1.11,1.11,0,0,0-.8-1.34c-2.12-.76-2.52-2.29-1.32-4.27a2.06,2.06,0,0,0,.35-2.09c-.8-.53-2.09-.64-2-2.11-.28-.11-.54-.24-.81-.32-1.16-.37-1.7-1.08-1.34-2.17a8.48,8.48,0,0,1,1.46-2.91,3,3,0,0,0,.68-3.34A2,2,0,0,1,80,130.6c1.23-.25,1.23-.26.82-1.46,0-.14-.14-.28-.1-.19-1.2-.43-2.23-.71-3.17-1.16-.49-.23-.78-.94-1.26-1.08-1.14-.34-1.82-1.24-2.71-1.87-.5-.35-1-.74-1.36-1,.06-1.15.11-2.16.17-3.17a1.9,1.9,0,0,1,.17-.71,5.19,5.19,0,0,1,2.45-2.75c.22-.09.35-.39.58-.66-.4-.25-.69-.57-1-.61a2.39,2.39,0,0,1-2.22-2.09l-3.14.71a8.76,8.76,0,0,1-.3,1,1.18,1.18,0,0,1-2.17.31,2.75,2.75,0,0,0-2-1.2,1,1,0,0,1-1-1,2.18,2.18,0,0,0-1.83-2.13c-1.6-.49-3.23-.85-4.86-1.23a1.65,1.65,0,0,1-1.21-2c.31-1.12.13-1.36-1.06-1.48l-.86,0a3.16,3.16,0,0,1-2.19-1A4.76,4.76,0,0,0,50,104.51a2,2,0,0,1-1.43-1.7,1.43,1.43,0,0,0-.3-.65c-.51-.69-.44-1.59-1-2.31a1.22,1.22,0,0,1,.31-1.56,2.92,2.92,0,0,0,.63-1c.24-.56.57-.86,1.23-.68a4.54,4.54,0,0,0,.84.1,5,5,0,0,1,.45-1.33,6.21,6.21,0,0,1,1.09-.93.8.8,0,0,0-1-.69A8.67,8.67,0,0,0,50,94q-5.44,1.5-10.89,3c-3.7,1-7.4,2.08-11.1,3.12-4.74,1.32-9.47,2.67-14.22,3.94a23.36,23.36,0,0,1-3.15.38,2.32,2.32,0,0,0-2.05,1,8.3,8.3,0,0,1,.87,1.39c.73,2,1.31,4,2.09,5.9,1.38,3.36,2.89,6.67,4.3,10,.87,2.07,1.67,4.18,2.49,6.27,1,2.59,2,5.18,3,7.78.83,2.18,1.57,4.39,2.43,6.55,1.31,3.28,2.68,6.53,4,9.79.44,1,1,2.07,1.4,3.12.35.79.63,1.61,1,2.4.46,1.11,1,2.19,1.42,3.31s.71,2.14,1.09,3.21a84.93,84.93,0,0,1,3,8.79,64.8,64.8,0,0,0,2.86,8c.61,1.59,1.32,3.14,2,4.71.26.57.59,1.12.94,1.8,1.93-1,3.77-1.91,5.54-2.93a5.72,5.72,0,0,1,2.19-.72c1.66-.22,3.31-.49,5-.72s3.56-.52,5.35-.68c1.21-.1,1.54-.45,1.17-1.62-.3-.93-.62-1.85-.92-2.78-.53-1.66-1.12-3.32-1.57-5-.61-2.29-1.45-4.52-1.91-6.85-.22-1.14-.19-1.35.92-1.69,1.88-.56,3.78-1.07,5.67-1.59,1.38-.39,2.77-.74,4.15-1.15,1.09-.32,2.16-.73,3.26-1.05,1.72-.5,3.45-1,5.18-1.44L79.75,159q2.53-.7,5.09-1.38c.75-.2,1.5-.36,2.24-.55C87.41,157,87.72,156.85,88.07,156.72Zm-17.78,113,.28.1c.49.36,1,.7,1.46,1.1a1.25,1.25,0,0,1,.3,1.66c-.46.88-.47.9.31,1.42s1.54,1.1,1.43,2.23c0,.13.22.28.29.36,1.17-1.25,2.27-2.46,3.41-3.62a2.14,2.14,0,0,1,1.81-.87,5.57,5.57,0,0,0,3.37-.29.94.94,0,0,1,.6,0,1.84,1.84,0,0,0,1.69-.5,2.63,2.63,0,0,1,1.17-.58c1.45-.17,2.91-.23,4.37-.36a8.51,8.51,0,0,0,1.18-.3,2.16,2.16,0,0,1,.83-.17c1,.23,2.15-.37,3.15.29.12.08.39-.07.59-.08.39,0,.79,0,1.21,0a2.69,2.69,0,0,0,.3-1.77,1.22,1.22,0,0,1,1-1.48,5.65,5.65,0,0,1,1.09-.19c1.3-.08,2.59-.14,3.89-.23a2,2,0,0,0,2-1.6,9.31,9.31,0,0,1,1.16-2c.08-.14.24-.29.23-.42-.12-.92.56-1.5.89-2.24a2.63,2.63,0,0,1,2.62-1.65,1.75,1.75,0,0,0,1.56-.8c1-1.53,2.16-3,3.11-4.57a3.07,3.07,0,0,0,.55-2.18,16.1,16.1,0,0,1-.36-2.52,1.23,1.23,0,0,1,.5-1.3,3.38,3.38,0,0,0,1.21-2.2,6.51,6.51,0,0,1,1-2.07,2.45,2.45,0,0,1,3.91-.21c.41.4.76.86,1.13,1.29s.77.51,1.06,0c.43-.8,1.52-1.41.83-2.59,0-.08.13-.28.19-.43a4.48,4.48,0,0,0,.4-1c0-.24,0-.64-.17-.74a1.47,1.47,0,0,0-.91-.11c-.15,0-.25.29-.41.43-.84.74-1.37.62-2-.49l.55-.91a19,19,0,0,0,1.27-2.06c.33-.7.42-1.51.74-2.21.54-1.17.86-2.49,2.3-3,.42-.16.68-.73,1.05-1.15-.32-.2-.49-.32-.66-.41a5.2,5.2,0,0,1-2.68-3.34c-.14-.51-.34-1-.53-1.5-.34-.89-.62-1.09-1.57-1a14.77,14.77,0,0,1-2.09.1c-.78-.09-1.74,0-2.14-.86a6.47,6.47,0,0,1-.37-1.89c-.07-.42-.09-.85-.13-1.32-.65.18-1.15.36-1.66.45-1.15.2-1.75-.17-1.9-1.34a6.92,6.92,0,0,0-1.14-2.8,3.42,3.42,0,0,1,.19-4.1,3.57,3.57,0,0,0,.57-1.07,1.31,1.31,0,0,0-1.39-1.76c-.66,0-1.33.09-2,0-1.26-.11-2.52-.28-3.78-.45a1.76,1.76,0,0,1-1.52-1.28,2.59,2.59,0,0,1,.27-2.37c.57-.75,1.18-1.46,1.81-2.15.49-.54.61-1.12.1-1.61-1.06-1-2.17-2-3.27-3a2,2,0,0,0-.37.09c-2.59,1.31-5.19,2.6-7.76,4a1.74,1.74,0,0,0-.69,1c-.63,1.95-1.23,3.91-1.78,5.88a8.93,8.93,0,0,1-1.66,2.85c-.47.67-.92.62-1.5,0s-1.1-1.23-1.69-1.8a3,3,0,0,0-3.38-.19,1.25,1.25,0,0,1-2.17-.78c0-.31-.08-.62-.12-.87-1.43-.41-2.87-.39-4.13-1.51.09.54.1.82.18,1.09.89,3.08,1.78,6.16,2.7,9.23.28.94.07,1.43-.89,1.76a5.76,5.76,0,0,1-.59.18C76.82,220,73,221,69.09,222.15c-.86.24-1.7.55-2.56.81-.69.21-1.39.39-2.1.59a9.88,9.88,0,0,0,.08,1c.44,2,.89,3.91,1.34,5.87.22,1,.08,1.16-.84,1.38s-2.12.53-3.18.81a1.17,1.17,0,0,0-.94,1.15,2,2,0,0,1-1.61,2.11,10,10,0,0,0-.07,1.72,1.11,1.11,0,0,1-.33,1.12c-.76.52-.69,1.18-.58,2,.09.54.14,1.34-.16,1.65a4.45,4.45,0,0,0-.94,2.05c-.26.82-.06,1.2.78,1.27a3.39,3.39,0,0,1,1.93.77,1.67,1.67,0,0,1-1,2.17,2.52,2.52,0,0,0-.51.34c-.92.66-.9,1.18.06,1.74.51.3,1.14.47,1.2,1.26,0,.2.35.41.57.57a12.58,12.58,0,0,1,1.21.79c.93.84,2.16,1.39,2.66,2.67,0,.13.25.2.39.29a2.83,2.83,0,0,1,1.39,2.68,1.82,1.82,0,0,0,.84,1.76,1.85,1.85,0,0,1,.84,2.11c-.33,1.42,0,1.71,1.46,1.74h.5a1.7,1.7,0,0,1,1.64,2.11c-.1.44-.29.86-.4,1.29C70.56,268.53,70.43,269.15,70.29,269.77Zm30.07-71.35a8.35,8.35,0,0,1-1-.77,2.78,2.78,0,0,1-.79-1.05,22,22,0,0,1-.37-3,1.61,1.61,0,0,1,.59-1.39,2.06,2.06,0,0,0,.82-2c-.24-1-.38-2.09-.55-3.14a3,3,0,0,1,1.56-3.37,5,5,0,0,0,1.52-1.69,17,17,0,0,1,1.93-3.27,1.45,1.45,0,0,0,.23-.47c-.26-.74-.8-.74-1.35-.72a1.69,1.69,0,0,1-1.76-1.26c-.14-.43-.24-.87-.35-1.3s-.15-.69-.27-1c-.44-1.19-1-2.34-1.32-3.56a22.89,22.89,0,0,1-.48-3.53,2.72,2.72,0,0,1,.27-1c.07-.23.33-.48.27-.65a3.75,3.75,0,0,1,.47-2.56c-.64-.5-1.23-.19-1.82-.09a3.56,3.56,0,0,1-4.24-2.08A4.45,4.45,0,0,0,88.66,158l-7.93,2.15c-3,.81-6,1.57-9,2.46C68,163.68,64.4,165,60.65,165.81a17.87,17.87,0,0,0-2,.61c-1,.37-1.06.44-.75,1.53q1,3.42,2,6.83,1.29,4.23,2.61,8.44c.23.73-.12,1.25-.93,1.34-1.86.19-3.72.32-5.57.57-2.31.32-4.61.71-6.9,1.1a5.53,5.53,0,0,0-1.25.5l-4.18,2.06-1.1.55a.72.72,0,0,0-.37,1c.27.63.53,1.27.83,1.89a1.77,1.77,0,0,1-.39,2.21c-.85.94-1.72,1.86-2.54,2.83-1.87,2.21-3.7,4.45-5.56,6.68-1.68,2-3.37,4-5.05,6-.37.44-.8.83-1.13,1.3a.86.86,0,0,0,.64,1.43c.84.12,1.69.17,2.54.28a2.55,2.55,0,0,1,.69.23A9.8,9.8,0,0,1,34,214c1.58,1.14,2.95.83,4.27-.44a1.17,1.17,0,0,1,1.36-.28A5.61,5.61,0,0,1,43,216.51a34.58,34.58,0,0,0,1.55,4,2.71,2.71,0,0,1,.25,2,7.35,7.35,0,0,0,.08,3.64,3.26,3.26,0,0,1-.21,2.28c-.46,1.07-.36,1.35.7,1.75a7.47,7.47,0,0,1,2.18.75A22.92,22.92,0,0,0,51,232.76a1.57,1.57,0,0,0,1.28.18c1.33-.35,2.5-1.23,4-1.19.21,0,.53-.27.64-.5a1.46,1.46,0,0,1,1.68-.72,3.82,3.82,0,0,1,2.09.65,1.06,1.06,0,0,0,.8.2c.95-.21,1.89-.51,3-.8-.08-.59-.12-1.07-.22-1.53-.4-1.8-.84-3.58-1.22-5.38-.17-.84.07-1.17.92-1.41,1.93-.57,3.85-1.13,5.78-1.68l10.07-2.82c.92-.26,1.09-.55.84-1.41q-1.42-4.95-2.83-9.9a2.17,2.17,0,0,1,0-.72c0-.57.1-1.13.17-1.78l.6-.22c1.52-.59,2.57,0,2.83,1.61a.9.9,0,0,0,.8.9,14.41,14.41,0,0,0,1.54.38,1.16,1.16,0,0,1,1.14.93c0,.18.11.36.16.55,1.86-.52,4.46-.29,5.67,1.54.64,1,1.33.81,1.73-.32.63-1.78,1.3-3.55,1.75-5.37s1.38-3.38,3.38-4a5.15,5.15,0,0,0,.9-.4C99,199.25,99.56,198.88,100.36,198.42Zm1.2-79.09a8.16,8.16,0,0,1,.23.87q.58,3.73,1.13,7.49c.2,1.37.36,2.74.57,4.11q.56,3.58,1.16,7.15c.13.73.37.9,1.11.83s1.23-.15,1.83-.26c1.49-.3,3-.71,4.45-.9a36.5,36.5,0,0,0,6.45-1.46c3.7-1.14,7.37-2.38,11.09-3.48,2.85-.85,5.75-1.53,8.62-2.32,1.82-.49,3.61-1.08,5.42-1.57s3.63-.9,5.44-1.35c1-.25,2-.48,3-.81a7.9,7.9,0,0,0,2-.93c1.38-.94,2.71-2,4.05-3,.47-.34.92-.7,1.38-1,1.34-1,2.72-2,4-3,1.69-1.35,3.31-2.81,5-4.16a18.89,18.89,0,0,0,3.78-3.85c.3-.43.8-.87.38-1.54-.78.18-1.52.36-2.27.52a2.56,2.56,0,0,1-2.82-1.6,3.43,3.43,0,0,0-.68-1.15,26,26,0,0,0-2.25-2.08,2.68,2.68,0,0,1-1.11-1.65c-.35-1.6-1-2-2.58-1.75A.89.89,0,0,1,160,102a3,3,0,0,0-2.48-1.53.89.89,0,0,1-.95-1.16,1.09,1.09,0,0,0-.76-1.35,1.26,1.26,0,0,1-.82-1.23c-.18-1.49-.36-3-.58-4.47-.27-1.81-.6-3.61-.89-5.42-.24-1.53-.47-3.07-.7-4.6s-.47-3.06-.7-4.58c-.31-2-.59-4-.92-6-.24-1.47-.49-2.93.46-4.27.12-.17.08-.46.11-.64a1.42,1.42,0,0,0-1.47-.15c-3.87,1-7.73,2.11-11.61,3.14-2.61.7-5.25,1.32-7.86,2-2,.57-4.07,1.25-6.11,1.87L117,76a9.93,9.93,0,0,0-.52,4.34c.48,3,.93,6,1.38,9,.3,2,.56,4,.87,6q.78,5.18,1.61,10.34a.69.69,0,0,1-.55.91,1.67,1.67,0,0,1-1.91-.44,1.54,1.54,0,0,0-2.12-.23c-.46.26-.84.64-1.29.93a16.26,16.26,0,0,1-2.09,1.22c-.75.32-1.58.46-2.37.71a2.85,2.85,0,0,0-.67.39,2.56,2.56,0,0,0,1.83,1.43,2.16,2.16,0,0,1,1.82,1.64c.2.87.3,1.76.44,2.65s.06,1.15-.87,1.41c-2.61.72-5.22,1.42-7.83,2.13C103.74,118.71,102.72,119,101.56,119.33ZM279.37,83.2c.89-.25,1.67-.49,2.47-.68q4.17-1,8.36-2.06c1.3-.31,2.61-.57,3.92-.87,1.06-.24,2.13-.51,3.19-.78.51-.13,1-.31,1.52-.45,2.24-.62,4.5-1.17,6.72-1.86,1.67-.52,3.29-1.22,4.94-1.84a23.93,23.93,0,0,0,5-2.78,27.23,27.23,0,0,1,4.68-3.12,18.38,18.38,0,0,0,2-1.09c-.3-1.06-.55-2-.86-3-.55-1.78-1.07-3.52-.07-5.36a2.74,2.74,0,0,0,.14-2.51,21.47,21.47,0,0,0-1.76-3,9.67,9.67,0,0,0-1.35-1.18c-.86-.8-2.06-1.26-2.49-2.49-.36-1-.71-2.07-1.09-3.09-.59-1.57-1.16-3.14-1.8-4.69-.81-1.94-.61-4.18-1.79-6a1.16,1.16,0,0,1-.11-.47c-.2-.9-.11-1.17.72-1.58s1.86-.86,2.79-1.28,1.94-.89,2.92-1.3,2-.83,3.05-1.26c.34-.15.72-.35.58-.82s-.5-.43-.9-.35a1.21,1.21,0,0,1-1.36-.61,3.23,3.23,0,0,0-.7-.68,2.22,2.22,0,0,1-.21-3.41,1.65,1.65,0,0,0-.65-2.64,2.72,2.72,0,0,1-1.79-1.55c-.43-1-.59-1.09-1.7-.8-.71.18-1.39.48-2.1.69l-6.31,1.84c-2.86.86-5.71,1.75-8.58,2.59-1.35.39-2.73.68-4.08,1.08s-2.47.87-3.73,1.24c-4.05,1.19-8.11,2.34-12.17,3.51q-2.44.71-4.91,1.38c-1,.29-2.06.52-3.08.82-1.32.4-2.64.84-3.95,1.29a2.78,2.78,0,0,0-.61.47c.52,1.87,1,3.71,1.56,5.55.89,3.1,1.74,6.23,2.75,9.3a22.78,22.78,0,0,0,1.91,5,8.58,8.58,0,0,1,1,2.08c1.13,3.89,2.2,7.79,3.29,11.69a87.27,87.27,0,0,0,2.9,9.49,40.87,40.87,0,0,1,1.17,4.14A14.68,14.68,0,0,0,279.37,83.2ZM103.44,140.13c-.24-1.73-.43-3.31-.67-4.87s-.52-2.9-.75-4.36c-.5-3.27-1-6.55-1.46-9.82-.12-.81-.25-1.63-.29-2.44s.25-1,.89-1a8.08,8.08,0,0,0,3-.45c1.91-.58,3.88-1,5.8-1.51s1.48-.11,1.74-2.14c.13-1-.09-1.28-1.14-1.65-.16,0-.29-.15-.45-.2-1.25-.44-1.93-1.57-2.87-2.38-.28-.25-.68-.47-.4-.88a1.54,1.54,0,0,1,.85-.56c.88-.22,1.78-.34,2.66-.55a7.31,7.31,0,0,0,3.33-1.53c1.4-1.26,2.94-2.05,5-1.07a7.45,7.45,0,0,0,0-1.15c-.16-1-.4-2.09-.55-3.14-.53-3.48-1-7-1.54-10.45-.39-2.67-.86-5.32-1.18-8-.18-1.48-.66-3-.12-4.49.1-.28-.1-.67-.18-1l-11.2,3.14-2.37.69c-1.17.34-2.33.69-3.5,1-.43.12-.89.11-1.31.23-1.37.39-2.73.81-4.09,1.21-1,.3-2,.6-3.06.86-1.8.47-3.61.9-5.41,1.35l-7.84,1.94c-2,.5-4.1.85-6.08,1.48C66.89,89.43,63.39,90,60,91c-1.67.48-3.34,1-5,1.54-.24.08-.58.45-.56.65.08.85-.41,1.26-1,1.7s-1.26.73-1.34,1.51A1.68,1.68,0,0,1,50.69,98c-1,.18-1.36.9-1.86,1.56.43,1.1.81,2.17,1.25,3.2a1.55,1.55,0,0,0,.72.75,7.24,7.24,0,0,1,1.93,1.29,2.74,2.74,0,0,0,1.77.67,3.64,3.64,0,0,1,3.41,1c.77.78.91.64.53,1.62-.23.6-.12.91.49,1.13s1.49.43,2.22.7A21.56,21.56,0,0,1,63.73,111a8.08,8.08,0,0,1,1.39,1.16l.15,1,2.76.26c.19-.07.58-.38.94-.33a4.69,4.69,0,0,0,2.91-.78,1.66,1.66,0,0,1,2.43,1,4.14,4.14,0,0,0,1,1.21c.34.34.79.57,1.13.91a1.49,1.49,0,0,1,0,2.45c-.18.18-.39.31-.56.48-.6.59-1.19,1.19-1.82,1.83a1.34,1.34,0,0,1,0,2.17,2.42,2.42,0,0,0-.34.72L76,124.94l1.23-.73,1.19.48-.2,2a4.69,4.69,0,0,0,.46.22c1.38.51,1.73.26,1.84-1.24a6.22,6.22,0,0,1,.24-1c1.59.08,1.89.39,1.72,1.77a7.88,7.88,0,0,0,0,3.28c.28,1-.16,1.61-1.15,2-.39.17-.8.32-1.18.46a2.32,2.32,0,0,0,.08.51,3.26,3.26,0,0,1-.63,3.93A7.68,7.68,0,0,0,78,139.77a6.16,6.16,0,0,1,1.77.82,6.41,6.41,0,0,1,1,1.73c.34.1.76.25,1.2.35.67.14.15,1,.79,1.19a5.32,5.32,0,0,0,.74-.12c1.46-.41,2.9-.87,4.37-1.25a37.65,37.65,0,0,1,4.42-1C95.9,141,99.55,140.59,103.44,140.13ZM212.83,94.51c-.57,0-1-.08-1.45-.07s-1.15,0-1.72.07c-1.8.1-3.61.06-5.38.33-2.18.34-4.33.9-6.48,1.43-1.91.47-3.78,1.09-5.7,1.55a16.88,16.88,0,0,0-6.75,3.64c-1.16,1-2.42,1.82-3.55,2.82s-2.58,1.67-1.89,3.55c-.46,1.72.11,3.41.29,5.09.31,3,.87,6,1.31,9,.39,2.71.72,5.42,1.13,8.13.3,2,.69,4.05,1,6.08.05.32.08.65.12,1,.23,2,.45,4,.68,6,.18,1.58.36,3.16.57,4.74.11.79.26,1.58.43,2.55.67-.19,1.17-.35,1.68-.47,1-.23,2.09-.45,3.13-.66a.76.76,0,0,1,1,.61c.29,1,.62,2,.89,3s.52,2.15.8,3.22a27.51,27.51,0,0,1,1.08,4.17,37.76,37.76,0,0,0,1.1,5.3c.2.87.74,1.16,1.43.61,1.15-.92,2-.1,2.87.34s1.54,1.09,2.39,1.44a6.75,6.75,0,0,1,2.25,1.45c.66.66,1,.61,1.6-.07.8-.92,1.61-1.82,2.39-2.7a22.75,22.75,0,0,1,2.18.77,1.11,1.11,0,0,0,1.49-.34,3.16,3.16,0,0,1,2.59-1.42c.92.1,1.19-.31,1.51-1a2.73,2.73,0,0,1,2.12-1.82,3.42,3.42,0,0,0,2.09-.82,1.93,1.93,0,0,1,3.12.15c.44.52,1.51,1,2,.75a9.39,9.39,0,0,0,2.21-1.26,37.49,37.49,0,0,1,2.85-2.48c.38-.28.79-.52,1.18-.8s.66-.36.7-.59a24.63,24.63,0,0,0,.43-3.63c0-.83-.41-1.08-1.19-.86a8.89,8.89,0,0,0-1.2.53,16.25,16.25,0,0,1-1.69-2.19c-.59-1.12-.93-2.38-2.25-2.93-.12-.05-.16-.3-.28-.39-.45-.33-.92-.65-1.39-1a7.21,7.21,0,0,1-1.4-.92,1.1,1.1,0,0,0-1.3-.34,9.46,9.46,0,0,1-1.8.38,1.06,1.06,0,0,1-1.13-.79,1,1,0,0,1,.48-1.27,2.71,2.71,0,0,0,.53-.3,1.76,1.76,0,0,0,.53-.74c.34-1.68.48-3.42,1-5a3.51,3.51,0,0,0-1.06-3.74,12.93,12.93,0,0,1-2.13-3.09,9.34,9.34,0,0,1-1.27-3.55c-.15-1.17-.36-2.34-.51-3.51-.26-2.08-.46-4.16-.73-6.23-.3-2.27-.67-4.54-1-6.81-.18-1.3-.29-2.6-.46-3.9a82,82,0,0,1-1.2-10.36C213.06,96.28,212.92,95.43,212.83,94.51Zm98.37,27c-.1-.45-.18-.93-.3-1.39q-1.53-5.56-3.07-11.11c-.25-.87-.53-1.73-.86-2.56-.27-.67-.51-.71-1.14-.52-1.64.49-3.27,1-4.92,1.41-1.25.32-1.38.17-1.64-1.06-.34-1.55-.69-3.11-1.06-4.66-.26-1.07-.56-2.14-.84-3.21-.43-1.65-.88-3.31-1.3-5a25.46,25.46,0,0,1-.84-3.71,46.52,46.52,0,0,0-1.13-5.64c-.19-.87-.48-1.73-.73-2.63a5.66,5.66,0,0,0-2.6.14c-1,.31-2.1.59-3.17.86-2,.51-4.05,1-6.05,1.5s-4.2,1.3-6.31,1.91c-2.84.83-5.68,1.61-8.52,2.43-2.52.72-5,1.43-7.54,2.18-1.56.46-3.11,1-4.67,1.48a18.58,18.58,0,0,1-7.24,1.14,3.6,3.6,0,0,0-1,.28c.39,1.59.63,3.1,1.13,4.51,1.41,4,2.13,8.2,3.15,12.31.54,2.17.87,4.4,1.39,6.58s1.2,4.48,1.8,6.72c.38,1.46.73,2.93,1.13,4.38s.85,2.91,1.25,4.37c.34,1.22.62,2.45,1,3.67a.75.75,0,0,0,1,.57c.91-.24,1.85-.38,2.75-.64,3.28-.94,6.53-1.94,9.81-2.86,2.95-.82,5.93-1.51,8.86-2.36,2.71-.78,5.37-1.72,8.07-2.52,2.08-.61,4.19-1.1,6.3-1.64,1.86-.48,3.74-.91,5.58-1.45C303.31,123.88,307.14,122.71,311.2,121.49Zm7.37-.61-4.79,1.34c-1.19.33-2.41.56-3.55,1a16.37,16.37,0,0,1-2.52.78c-2.27.44-4.49,1.18-6.72,1.82-1.46.41-2.9.86-4.37,1.25-2.32.63-4.66,1.17-7,1.83-2.51.72-5,1.58-7.5,2.3-3.62,1-7.26,2-10.88,3-.59.16-1.16.41-1.74.56-.79.22-1.6.36-2.39.57-1.7.45-3.39.92-5.09,1.38-1,.27-2.05.53-3.06.84s-1.27.62-1,1.79.67,2.33,1,3.5c.44,1.57.86,3.14,1.3,4.71.38,1.33.79,2.66,1.15,4s.6,2.62,1,3.91c.47,1.64,1,3.24,1.52,4.88.62,2.11,1.22,4.24,1.82,6.37.75,2.68,1.5,5.35,2.23,8,.77,2.84,1.51,5.68,2.28,8.52.1.34.24.79.51.94,1.35.78,1.29,2.25,1.55,3.44.22,1,.78,1.85.92,2.85,0,.14.29.24.51.42.76-1.24,1.49-2.41,2.22-3.59.59-1,1.14-2,1.8-2.92s1.45-1.65,2-2.55a35.49,35.49,0,0,1,3.9-5.06,5.89,5.89,0,0,0,1.55-2.17.72.72,0,0,1,.29-.39c1.29-.71,1.75-2.07,2.38-3.23a10.37,10.37,0,0,1,3.45-3.6c1.77-1.17,3.7-2.09,5.4-3.38,1.5-1.14,3-2.21,4.56-3.32a6.6,6.6,0,0,0,.71-.69c.44-.48.85-1,1.31-1.45a1.51,1.51,0,0,1,1.69-.43c.3.11.6.18,1.07.32a16.89,16.89,0,0,0,.63-2.36,4.71,4.71,0,0,1,1.5-2.88c.46-.45.81-1,1.26-1.48a4.74,4.74,0,0,1,1.47-1.23,1.65,1.65,0,0,0,1-1,30.45,30.45,0,0,1,1.36-3c1.22-2.14,3.19-3.6,5-5.19a9.19,9.19,0,0,0,1.4-1.68c.65-.89,1.18-1.88,1.88-2.73a3.87,3.87,0,0,0,.7-4c-.94-3-1.66-6.13-2.57-9.17C319.49,122.77,319.49,121.66,318.57,120.88ZM336.4,66.55c-2.34.37-4.43.68-6.51,1-1.93.34-3.86.74-5.78,1.11a14.23,14.23,0,0,0-6.27,3.09,20.26,20.26,0,0,1-5.78,3.6c-1.49.55-2.94,1.2-4.42,1.75-1.7.62-3.41,1.19-5.12,1.77a13,13,0,0,1-1.39.38c-1.86.43-3.73.83-5.6,1.25-.5.12-.82.39-.71,1,.05.28.11.55.17.83l1.62,7.55c.05.24.07.49.13.72.54,2,1.1,4,1.62,6.06.7,2.73,1.37,5.47,2.06,8.2.26,1,.38,1.09,1.35.83,1.75-.47,3.48-1,5.23-1.46.93-.26,1.15-.07,1.29.87a27.1,27.1,0,0,0,.6,3.11c.54,2,1.14,4.07,1.71,6.1.5,1.81,1,3.62,1.5,5.42.28,1,.68,1.24,1.72,1.1a8.2,8.2,0,0,0,.95-.23l4.8-1.34a9.11,9.11,0,0,1,.69,1.42c1,3.7,2.06,7.42,3.1,11.13a13.9,13.9,0,0,0,.59,1.42c.39-.49.64-.75.82-1A13.45,13.45,0,0,1,328.6,128c.55-.34,1.19-.55,1.72-.91a20.78,20.78,0,0,0,4.89-4.79c.2-.26.36-.61.62-.75,1.36-.68,2.15-2,3.22-3,.9-.84,1.74-1.75,2.71-2.5,2.09-1.62,4.25-3.17,6.43-4.78-.19-.69-.36-1.31-.54-1.93-1.11-3.87-2.24-7.73-3.33-11.6-.27-1-.4-2-.6-3a29.74,29.74,0,0,0-.63-3c-.6-2-1.35-3.85-1.94-5.8-.77-2.55-1.47-5.12-2.16-7.7a11.89,11.89,0,0,1-.47-2.64,17.65,17.65,0,0,0-.93-4.19c-.29-1-.5-2-.74-3C336.7,67.89,336.57,67.27,336.4,66.55ZM100,195.37a11.6,11.6,0,0,1,1-.64,9,9,0,0,1,2.46-1c1.86-.22,3.75-.19,5.63-.29,2.82-.14,5.65-.31,8.47-.47l6.88-.39c1.42-.07,2.85-.2,4.28-.18,2.45,0,4.9.19,7.36.26.22,0,.45-.18.8-.32l-4.67-6.8a12.79,12.79,0,0,1-1.8-3.48c-.47-1.55-.25-2,1.28-2.55.44-.16.87-.36.77-.94s.37-.86.84-1c.75-.21,1.52-.38,2.28-.55,1.06-.23,1.37-.68,1.19-1.71-.1-.57-.21-1.14-.26-1.71a23.9,23.9,0,0,0-1.64-6.15,23.21,23.21,0,0,1-.87-3.3c-.23-1.16-.29-2.36-.51-3.53s-.68-2.52-.86-3.8c-.42-3.08-.74-6.18-1.11-9.27-.12-1.05-.28-2.09-.4-3.14-.16-1.39-.29-2.77-.44-4.16-.2-1.7-.41-3.4-.64-5.24-1.22.34-2.32.61-3.4,1-2.14.68-4.25,1.45-6.4,2.08s-4.26,1.11-6.4,1.62c-1.11.27-2.25.45-3.38.66-1.44.28-2.87.6-4.32.81-2.38.34-4.77.6-7.15.92a21.43,21.43,0,0,1-3.76.54,21.24,21.24,0,0,0-6.25,1c-1.68.43-3.35.92-5.05,1.31a3.6,3.6,0,0,0-2.59,2.35,1.17,1.17,0,0,0,.76,1.67c.34.13.7.24,1,.36a1,1,0,0,1,.75,1.09,14.83,14.83,0,0,0,.16,2.18c.22,0,.4.11.53.06a2.68,2.68,0,0,1,2.71.7,6,6,0,0,1,1.56,1.87,1.87,1.87,0,0,0,.75.75c1.16.61,2.38,1.1,3.51,1.75a3.49,3.49,0,0,1,1.56,1.47c.63,1.73,1.3,2.34,3.28,1.91a4.7,4.7,0,0,1,2.17.11c1.34.37,1.58,1.05.82,2.18a1.63,1.63,0,0,0-.29,1.24,2.38,2.38,0,0,1-.22,1.29c-.77,1.38,0,2.72,0,4.07,1.08,1.47,1.09,3.32,1.77,4.94.49,1.16.37,1.25,1.52,1.28.83,0,1.57.26,1.75,1.06a2.17,2.17,0,0,1-.49,2.39,5.24,5.24,0,0,0-1,1.5c-.76,1.45-1.38,3-3,3.79a1.43,1.43,0,0,0-.74,1.67c.21,1,.34,1.94.5,2.91.2,1.18.4,2.31-.78,3.23C99.27,193.3,99.36,194.31,100,195.37ZM229.84,44.52c-1.73.43-3.28.79-4.81,1.21-1.9.52-3.78,1.09-5.68,1.63l-10,2.87-10.39,3c-2.52.72-5.05,1.42-7.56,2.15-1.25.36-1.3.45-1.17,1.7,0,.16.06.32.08.49.41,2.79.86,5.59,1.23,8.39.56,4.21,1.08,8.44,1.6,12.66.2,1.58.3,3.18.51,4.75.4,3,.81,5.92,1.31,8.87.18,1.05.08,2.21.83,3.22.88-.25,1.73-.51,2.6-.73a34.94,34.94,0,0,1,9.8-1.48c.9,0,1.79-.08,2.69-.13,1.63-.09,3.27-.21,4.9-.28,2.54-.1,5.08-.13,7.61-.27,3.84-.21,7.68-.56,11.53-.74,2.69-.12,5.39-.06,8.09-.09.32,0,.63-.06,1.09-.11A6.83,6.83,0,0,0,244,90.4c-.66-2-1.35-3.94-2-5.92-1.32-4-2.35-8-3.75-11.92-1-2.67-1.7-5.43-2.53-8.15-.69-2.23-1.39-4.45-2-6.69s-1.27-4.56-1.89-6.85c-.47-1.69-.9-3.39-1.38-5.07A12.77,12.77,0,0,0,229.84,44.52ZM214.36,94.27a31.91,31.91,0,0,0-.05,3.62c.27,2.57.66,5.12,1,7.68.44,3.38.88,6.75,1.31,10.13.22,1.74.4,3.5.65,5.24.31,2.18.71,4.35,1,6.54a8.34,8.34,0,0,0,.94,3,23.14,23.14,0,0,0,2.7,3.8,4.87,4.87,0,0,1,1.09,4.47c-.25,1-.6,2-.92,3.05-.49,1.55-.16,2.17,1.29,2.93a10.32,10.32,0,0,1,2.57,1.72c.82.8,1.54,1.92,3.06,1.67.54-.08,1,.79.65,1.3-.55.85-.06,1.39.4,2s.79.74,1.63.24,1.55-.36,1.9.67a7.46,7.46,0,0,1,.26,1.57c.06.51,0,1,.5,1.48a7.29,7.29,0,0,0,2.16-1.29,1.84,1.84,0,0,1,1.61-.71,1.13,1.13,0,0,0,1.23-.82,1.64,1.64,0,0,1,.84-.78c.72-.28,1.49-.41,2.24-.62.31-.08.62-.2.93-.3-.17-.23-.27-.27-.37-.28-1.1-.16-1.36-.69-.86-1.67a4.71,4.71,0,0,0,.29-1c.07-.27.13-.54.22-.81.4-1.2,1.46-1.41,2.5-1.68,2.19-.55,4.37-1.11,6.56-1.69,1.58-.42,3.17-.84,4.74-1.3.82-.25.93-.44.74-1.13q-.93-3.49-1.88-7c-1.33-4.9-2.73-9.78-4-14.69S249.08,110,248,105.23c-.21-.91-.35-1.84-.58-2.75a55.88,55.88,0,0,1-1.76-6.39,16.93,16.93,0,0,0-1-3c-2.25,0-4.41-.08-6.57,0-3.14.12-6.28.38-9.43.55s-6.2.35-9.3.5C217.71,94.17,216.12,94.21,214.36,94.27Zm-36.1,13.39a2.8,2.8,0,0,0-.74.28,16.8,16.8,0,0,0-3.82,3.8,11.8,11.8,0,0,1-2.5,3.17c-1,.77-1.89,1.58-2.83,2.36-1.64,1.37-3.24,2.77-4.92,4.09-2.18,1.72-4.41,3.38-6.64,5a12.6,12.6,0,0,1-5.89,2.83,24.37,24.37,0,0,0-3.21.82c-2.72.76-5.43,1.58-8.16,2.32-2.17.58-4.36,1.08-6.53,1.64-1.55.4-1.7.65-1.51,2.22.44,3.68.84,7.38,1.28,11.06q.39,3.18.84,6.34c.35,2.39.71,4.78,1.11,7.16.27,1.61.59,3.21.92,4.81.19.93.24.92,1.13.69l6.39-1.69c2.2-.58,4.39-1.18,6.59-1.79,2.64-.72,5.26-1.47,7.91-2.17,3.11-.82,6.24-1.59,9.36-2.4,2.13-.55,4.25-1.12,6.37-1.69l2.86-.77c2.34-.6,4.68-1.2,7-1.82a9.51,9.51,0,0,0,1.17-.47c-.19-1.69-.33-3.28-.54-4.85-.33-2.52-.82-5-1-7.57-.32-3.79-1-7.53-1.57-11.29-.24-1.67-.5-3.33-.73-5-.28-2-.47-4-.79-6s-.42-3.88-.84-5.8C178.58,111.32,178.49,109.55,178.26,107.66Zm53.1-63.79a7.75,7.75,0,0,0,.12,1c.62,2.29,1.23,4.59,1.88,6.87.8,2.76,1.65,5.5,2.46,8.25.76,2.55,1.48,5.1,2.25,7.64s1.66,5.29,2.51,7.93A45,45,0,0,1,242,79.87c.34,1.52.84,3,1.3,4.46s1,3.12,1.51,4.67c.31.92.68,1.82,1,2.74a9.11,9.11,0,0,1,1.1,0,18.9,18.9,0,0,0,8.11-1.35c1.09-.38,2.2-.68,3.3-1,1.94-.55,3.88-1.06,5.81-1.62S268,86.55,269.91,86c2.35-.7,4.71-1.39,7.06-2.1.86-.26.94-.38.73-1.22-.35-1.43-.72-2.86-1.14-4.27-.18-.58-.59-1.09-.76-1.67-.74-2.51-1.44-5-2.14-7.56-.82-2.9-1.6-5.8-2.45-8.69-.61-2.06-1-4.22-2.35-6a1.69,1.69,0,0,1-.21-.45c-.54-1.72-1.09-3.44-1.6-5.18a35.16,35.16,0,0,0-1-3.55c-.87-2.1-1.26-4.34-2-6.49l-1.34-4.1c-5.32,1.43-10.46,3-15.62,4.59S236.7,42.32,231.36,43.87Zm-37.13,52c-.26-1.67-.49-3.13-.7-4.59-.14-.93-.22-1.87-.35-2.81-.48-3.37-1-6.73-1.45-10.11-.28-2.07-.47-4.16-.73-6.24-.32-2.51-.66-5-1-7.53s-.65-4.88-1-7.31c-.11-.82-.36-1-1.15-.86s-1.84.4-2.75.66c-2.78.79-5.56,1.62-8.34,2.39-2.56.71-5.13,1.36-7.68,2.07-2.12.59-4.23,1.24-6.35,1.84A18.5,18.5,0,0,1,160,64c-2,.24-3.69,1.35-5.68,1.42-.15,0-.28.18-.44.22-.54.12-.66.46-.71,1a5,5,0,0,1-.5,1.73,3.33,3.33,0,0,0-.39,2.13c.28,1.74.56,3.48.86,5.21.07.4.35.8.31,1.18a13.63,13.63,0,0,0,.4,3.37c.38,3,.93,6,1.4,9.07.3,1.9.59,3.79.82,5.7a2.79,2.79,0,0,0,.84,1.7A24.38,24.38,0,0,1,158.64,99c1,.08,1.6,1.18,2.59,1.83a6.67,6.67,0,0,0,1.16,0,1.21,1.21,0,0,1,1.32.69,11.16,11.16,0,0,1,1.15,2.29,3,3,0,0,0,1.08,1.42,9.05,9.05,0,0,1,2.94,3.41,1,1,0,0,0,1.09.59c.37,0,.73-.17,1.09-.15a1.57,1.57,0,0,0,1.67-1.16c.47-1.08.64-1.12,1.81-.86a3,3,0,0,0,3.05-.77,18.79,18.79,0,0,1,1.59-1.5c1.64-1.35,3.34-2.63,4.94-4a18.54,18.54,0,0,1,8.44-4.36A16,16,0,0,0,194.23,95.82Zm21.83,125.83c0,1,.73,1.54,1.05,2.28a14.16,14.16,0,0,0,3.19,4.58c.52.52.83.6,1.37.11.68-.64,1.28-1.37,1.92-2.06s1.55-1.65,2.35-2.45a1.6,1.6,0,0,1,.64-.35,7.82,7.82,0,0,0,2.23-1.55c.1-.13.22-.24.33-.37l5.34-6.31a2.36,2.36,0,0,1-.34-.74.88.88,0,0,1,.3-.72,1.1,1.1,0,0,1,.89,0c.23.1.34.44.49.68.37.57.82,1.14,1.51,1.13a9.41,9.41,0,0,1,3.45.66c.05,0,.14-.06.3-.13.08-.55.15-1.16.25-1.76a16.19,16.19,0,0,1,.51-2.62c.45-1.28,1.07-2.49,1.6-3.74a1.76,1.76,0,0,0,.2-.69,2.24,2.24,0,0,1,1.87-2.47,2.88,2.88,0,0,0-1.87-1.92c-.44-.17-1.06-.18-1-.86s.54-.68,1.06-.77a3.09,3.09,0,0,0,1.21-.55.89.89,0,0,0,.32-.72c-.25-.94-.57-1.86-.88-2.79-.06-.19-.16-.36-.2-.55-.22-1-.38-1.94-.64-2.89-.69-2.6-1.43-5.19-2.14-7.79,0-.16-.08-.32-.12-.48-.28-1-.55-1.94-.83-2.91-.34-1.13-.73-2.25-1-3.39-.58-2.28-1.07-4.57-1.66-6.84-.66-2.5-1.38-5-2.1-7.47a2.37,2.37,0,0,1,.44-2.3,1.77,1.77,0,0,0,.56-1.55c-.35,0-.67-.09-1-.09-.76,0-1.47,0-1.78-1-.08-.22-.51-.37-.81-.48a2.36,2.36,0,0,0-2.57.73c-.79.76-1.58,1.52-2.43,2.21-.66.53-1.42.93-2.08,1.44a1.64,1.64,0,0,1-2.23,0c-.49-.38-.95-.79-1.43-1.17-.68-.54-.76-.53-1.43.1a2.59,2.59,0,0,1-.82.68,11.36,11.36,0,0,1-1.75.26,1.36,1.36,0,0,0-1.19.94,5.23,5.23,0,0,1-.6,1.34,3,3,0,0,1-1,.8c-.17.08-.46-.08-.71-.13a2.12,2.12,0,0,0-1.72.59c-.34.67.12,1.08.5,1.51.22.25.45.47.72.75-.63,1.43-1.24,2.84-1.92,4.41a8.24,8.24,0,0,0,0,1.19,3.63,3.63,0,0,1-2.06,4.21,15.58,15.58,0,0,0-1.3,1l1.58,1.92a1.54,1.54,0,0,1,.17,2.11c-.48.83-.49.92.24,1.54a1,1,0,0,1,.42,1,4.34,4.34,0,0,0,0,1.1,11,11,0,0,1,1.73,2,9.67,9.67,0,0,0,1.48,2.24,2.8,2.8,0,0,1,.7,1.27c.5,2.69.9,5.4,1.4,8.09a12.84,12.84,0,0,0,.9,3.06,10.33,10.33,0,0,0,1.6,2A26.84,26.84,0,0,1,222,211.3a11.17,11.17,0,0,1,.55,1.44c-.51.33-.93.66-1.38.91-2.19,1.21-4.4,2.39-6.58,3.61a1.17,1.17,0,0,0-.57.72,2.13,2.13,0,0,0,.92,1.65c.45.39.86.05,1.22-.2a3.32,3.32,0,0,1,1.88-.72c.64,1,.59,1.37-.29,1.95C217.17,221,216.6,221.33,216.06,221.65ZM235,156.6c-.88,2.12-.13,3.31,2.07,3.38.24,0,.49,0,.73,0a2.87,2.87,0,0,1,.83.19c.5.2.55.5.24,1-.52.79-1,1.6-1.55,2.35a1.89,1.89,0,0,0-.27,1.73c.8,3.09,1.58,6.18,2.42,9.26,1.13,4.16,2.31,8.3,3.47,12.45.19.67.39,1.34.57,2,.51,2,1,4,1.52,5.92.37,1.41.8,2.81,1.18,4.23.27,1,.44,2.1,1.7,2.44.05,0,.07.13.14.26l-.35,1.16,1.42,1.3c.56-1,1-2,1.55-2.88a5.74,5.74,0,0,1,2.29-2.5,48.4,48.4,0,0,1,4.86-1.74,5.65,5.65,0,0,1,1.88-.47,3.15,3.15,0,0,0,2.33-.88,3.51,3.51,0,0,1,1.15-.67c1-.36,2.11-.63,3.14-1s2.12-.84,3.2-1.23c.87-.32,1.76-.58,2.65-.86a4.83,4.83,0,0,0-.09-.94c-.36-1.13-.81-2.23-1.1-3.37a3.87,3.87,0,0,0-1.3-2.41,1.46,1.46,0,0,1-.39-.76c-.27-.95-.5-1.9-.75-2.85-.71-2.69-1.41-5.38-2.15-8.06-.6-2.21-1.26-4.4-1.89-6.6l-2.16-7.55c-.86-3-1.73-6.08-2.59-9.12-.55-2-1.09-4-1.65-5.92-.27-.92-.49-1-1.45-.8-.15,0-.31.11-.46.16l-6.49,1.78c-1.46.39-2.94.74-4.39,1.14a1.42,1.42,0,0,0-1.18,1.64,1.7,1.7,0,0,0,.46.94,2,2,0,0,1,.6,2c-.15.66-.72.68-1.24.79a16,16,0,0,1-2.13.48,1.68,1.68,0,0,0-1.68,1.17,1.27,1.27,0,0,1-1.52.93,1.47,1.47,0,0,0-1.48.68A2.29,2.29,0,0,1,235,156.6Zm-72.67,70.93c-.24-1.15-.42-2.08-.64-3-.36-1.47-.74-2.93-1.15-4.38a1.68,1.68,0,0,0-.57-.89c-1.81-1.27-3.65-2.49-5.47-3.75a15.61,15.61,0,0,1-2.93-2.18,40.37,40.37,0,0,1-4.25-5.55c-.86-1.44-1.91-2.76-2.85-4.15-2-2.92-3.92-5.84-5.83-8.8a1.71,1.71,0,0,0-1.4-.83c-.77-.07-1.55-.14-2.33-.16a99.24,99.24,0,0,0-10.77.07c-4.6.4-9.23.49-13.85.71-1.8.09-3.59.29-5.38.24a5.77,5.77,0,0,0-4.12,1.81c.28.13.47.29.59.25a7.58,7.58,0,0,0,1-.47c.29-.13.64-.42.88-.35a7.49,7.49,0,0,1,2.33,1,37.68,37.68,0,0,1,3.16,2.91c1.12,1.08,1.09,2.06,0,3.19a16.83,16.83,0,0,0-1.74,2.22c-.56.88-.28,1.46.71,1.74.2.05.41.06.6.1a21.63,21.63,0,0,0,4.89.1c.4,0,1,0,1.17.2a4.37,4.37,0,0,1,1.23,2.2,4.27,4.27,0,0,1-1,3,1.86,1.86,0,0,0-.12,1.94c.54,1.26,1.45,2.36,1.62,3.78,0,0,.06.05.21.17l1.46-.69a1.26,1.26,0,0,1,1.93,1.18c0,.57,0,1.14,0,1.71,0,.93.41,1.36,1.34,1.37h.24l1.84-.15a2.56,2.56,0,0,1,2.58,1.81,8,8,0,0,0,.83,2.27,10.36,10.36,0,0,0,2.12,2c.82.63,1.14.59,1.69-.3.94-1.54,2.64-1.93,4-2.76a7.62,7.62,0,0,1,2-.66c1.5-.39,3-.82,4.53-1.09a2.5,2.5,0,0,1,1.87.3c1,1,2.33.79,3.48.86a5.46,5.46,0,0,1,2.83.94,4.12,4.12,0,0,0,1.79.67,2.93,2.93,0,0,1,2.24,1.31,6.44,6.44,0,0,0,1.19,1.2c.48.38,1.09.6,1.54,1a9.71,9.71,0,0,0,4.47,1.8c.78-.91-.27-1.75,0-2.67Zm28.36-34a5.13,5.13,0,0,1,.91-.46q2.37-.66,4.75-1.26a1.74,1.74,0,0,0,1.45-1.31,2.78,2.78,0,0,1,.77-1c.22-.22.59-.34.74-.59.42-.68,1.07-.66,1.71-.68a5.92,5.92,0,0,1,1.1.14,25.16,25.16,0,0,1,3.48.67c1,.33,1.86,1,3,1,.22,0,.43.22.65.32l2.41,1.12c.64-.84,0-1.22-.45-1.42a1.67,1.67,0,0,1-1.1-1.73,2.28,2.28,0,0,0-.78-1.84c-.71-.69-.68-1.12-.14-1.95.15-.24.32-.47.51-.75-.58-.75-1.18-1.48-1.71-2.25a1.15,1.15,0,0,1,.28-1.81c.51-.4,1.05-.76,1.59-1.12a2.49,2.49,0,0,0,.53-4.11,1.74,1.74,0,0,1-.26-2.13,8.43,8.43,0,0,1,.76-1.26,1.06,1.06,0,0,0,.19-1.24c-.14-.34-.27-.68-.38-.94a9.76,9.76,0,0,1-1.26-.42,1,1,0,0,0-1.42.3c-.6.72-1.22,1.44-1.77,2.2-.66.91-1,1-1.87.28a9.74,9.74,0,0,0-2.33-1.79,21.48,21.48,0,0,1-3.56-1.86,1.26,1.26,0,0,0-.8-.16c-1.48.32-3,.67-4.42,1.05-.2,0-.48.3-.49.47a2,2,0,0,1-1.17,1.5c.34,1.54,2,1.88,2.64,3.09l-.29.77a14.81,14.81,0,0,0-1.83.54c-.26.1-.61.46-.59.67.08.83-.5.92-1,1.12-.81.3-.84.34-.64,1.17.14.64.34,1.28.53,1.9a1.11,1.11,0,0,1-.62,1.55c-.55.28-1.09.57-1.62.88-1.75,1-3.34,2.34-5.29,3-1.54.51-3.1,1-4.66,1.37-3.29.86-6.59,1.68-9.88,2.51-1.43.36-2.84.78-4.29,1a4.09,4.09,0,0,0-1.94.73c2.14,6.83,3.56,13.88,5.62,20.8.47-.1.79-.16,1.1-.24l4.86-1.25c1.39-.36,2.77-.77,4.17-1.07a1.86,1.86,0,0,1,1.39.17,1.7,1.7,0,0,0,1.72.21c1.31-.32,2.59-.73,3.89-1q5.12-1.23,10.25-2.42c.69-.16.93-.48.77-1.14s-.43-1.5-.63-2.25-.52-.74-1.11-.68c-1.22.11-1.25,0-1.54-1.16C192,198.37,191.34,196.08,190.67,193.52Zm-4.73-39.16a9.83,9.83,0,0,1-1.48.63c-1.29.34-2.62.57-3.91.92-1.61.44-3.19,1-4.81,1.43-2.2.6-4.43,1.13-6.64,1.71s-4.2,1.1-6.29,1.66l-9.28,2.46c-1.11.29-2.23.55-3.34.86-.74.21-1.47.46-2.21.7a.76.76,0,0,0-.56,1c.4,1.63.84,3.24,1.27,4.86.19.75.37,1.51.57,2.26s.56,1.14,1.26,1c1.19-.27,2.38-.58,3.57-.87.19,0,.45-.18.57-.11,1.06.64,2.12.3,3.18.06.14,0,.31.07.52.12.21,1.79,1.12,3.45.75,5.32a1.26,1.26,0,0,0,.12.47c.29.94.6,1.87.85,2.81.5,1.92,1.37,3.72,1.15,5.83-.16,1.51.52,1.87,2,1.5l10.56-2.63,7.87-2a3.67,3.67,0,0,0,.81-.27c1.92-1.1,3.84-2.2,5.73-3.34.87-.53.85-.59.56-1.59-.14-.47-.24-.95-.37-1.42-.42-1.57-.37-1.64,1.2-2.22a2.15,2.15,0,0,0,.39-.28c-.56-1.54,1.36-1,1.65-1.76-.58-1-1.07-1.95-1.64-2.83-.35-.56-.22-.87.28-1.22s1.14-.64,1.26-1.42c0-.21.49-.39.78-.52a5.7,5.7,0,0,1,.84-.19c.78-.22.88-.29.67-1.12-.62-2.57-.79-5.22-1.59-7.76-.66-2.07-1.08-4.21-1.64-6.31a13.67,13.67,0,0,0-.59-1.42l-4.34,1.21Zm-19.78,57c-.5-2-1-4-1.49-5.93-.92-3.48-1.87-6.94-2.81-10.41-.68-2.48-1.39-5-2-7.44a7.83,7.83,0,0,1-.12-1.68c0-.19.13-.41.08-.58-.49-1.74-1-3.46-1.51-5.2a25.82,25.82,0,0,1-.62-2.74c-.11-.67,0-1.38-.14-2.05-.16-.91-.35-1-1.27-.75-.46.11-1,.31-1.39.13a2.43,2.43,0,0,0-2,0c-.94.28-1.9.48-2.85.72s-1.35,0-1.61-.84-.45-1.73-.67-2.59c-.49-1.9-1-3.79-1.47-5.69-.15-.62-.48-.94-1.14-.85a3.71,3.71,0,0,0-1,.16,32.56,32.56,0,0,1-5.87,1.7,2.6,2.6,0,0,0-1.49.69l1.76,9.51-3.91,1.1c-.22,1.54-.22,1.54-1.6,1.91a4.15,4.15,0,0,1-.48.11.75.75,0,0,0-.71,1,7.76,7.76,0,0,0,.78,2c.62,1,1.39,2,2.08,3,1.17,1.72,2.32,3.46,3.48,5.2l6.33,9.47c1.58,2.37,3.1,4.8,4.78,7.11a19.65,19.65,0,0,0,3.79,4.49c1.1.83,2.22,1.64,3.34,2.43,1.41,1,2.81,2,4.25,2.92,1,.64,2,1.2,3.08,1.77a1.56,1.56,0,0,0,1.66.14c-.23-1.07-.45-2.17-.71-3.25-.34-1.34-.72-2.67-1.07-4a1.18,1.18,0,0,1,.44-1.35C164.72,211.59,165.41,211.94,166.16,211.35Zm41.05,8,1.42-.71c1.16-.58,2.57-.92,2.39-2.72a.86.86,0,0,1,.53-.69c.23-.06.59.17.81.36a6.76,6.76,0,0,1,.71.89,9.07,9.07,0,0,0,1-.39c1.83-1,3.63-2,5.48-3,1.46-.76,1.48-.73.65-2.12,0-.07-.11-.13-.27-.32l-1.57.44c-2.53.75-5,1.54-7.57,2.25-2.16.62-4.34,1.15-6.5,1.73a1.54,1.54,0,0,0-.45.21c-.87.52-1.76,1-2.61,1.6-.66.44-1.27.94-2.09.34-.09-.07-.31,0-.46.05-1.09.14-1.24.07-1.49-1.07-.6-2.76-1.91-5.28-2.72-8a3.38,3.38,0,0,0-.49-.74,21.21,21.21,0,0,1-4.67,1,1.55,1.55,0,0,0-.36.08c-2.81.76-5.61,1.54-8.42,2.27a1.86,1.86,0,0,1-1.3-.07,2.29,2.29,0,0,0-1.89-.14l-5.85,1.45c-1.07.27-2.13.57-3.21.8-.63.14-1.29.17-1.94.26l-1.18.19c.72,2.87,1.39,5.59,2.07,8.32a2.2,2.2,0,0,1-2.35.13,8.2,8.2,0,0,0-1.38-.53c-.37-.12-.76-.17-1.33-.29.22.78.4,1.35.54,1.92.37,1.55.72,3.1,1.1,4.65.24,1,.21,1.06-.73,1.44l-.44.22c-.82.4-1,.66-.75,1.43.38,1.2.61,1.38,1.46,1.32s1.52-.18,2.28-.25a10.21,10.21,0,0,1,2.52.2c.82.14,1.77-.58,2.6-.46,1.56.22,2.74-.65,4.13-1a10.42,10.42,0,0,1,.23-1.09c.16-.47.45-.85,1-.66,1.55.53,2.88-.09,4.23-.72a8.64,8.64,0,0,1,.93-.32l1.21,1.31,2-1.22a7.62,7.62,0,0,0-.25-.87c-.44-1.08-.25-1.39.91-1.47a4,4,0,0,0,.49,0c.87-.12,1.77,0,2.45-.87a8.56,8.56,0,0,1,1.78-1.28,2.26,2.26,0,0,0,1.93.21c.45-.13,1-.08,1.49-.27a1,1,0,0,1,1.43.56,1,1,0,0,0,1.25.52c.51-.11.43-.59.44-1,0-1,.46-1.2,1.33-.61a1.24,1.24,0,0,0,1.25.24,4.71,4.71,0,0,1,1.09-.17,7.87,7.87,0,0,1,.18-1.41,1.35,1.35,0,0,1,.62-.82,1.14,1.14,0,0,1,1,.23c.87.83.88.86,1.92.26l1-.59c.14-.7-.22-1.46.7-1.85S206.66,218.89,207.21,219.33Zm11.86-10.12c-.53-.72-1-1.39-1.48-2a8,8,0,0,1-1.74-2.95c-.29-1.13-.48-2.3-.68-3.46-.36-2.13-.69-4.26-1.06-6.39a1.67,1.67,0,0,0-1.63-1.35,3.09,3.09,0,0,1-1.58-.52,7,7,0,0,0-2.33-1.08,13.48,13.48,0,0,1-3.46-1.08c-.9-.45-2.08-.3-3.12-.51s-1.62.67-2.5.84c-.32.06-.55.74-.77,1.17s-.41.87-1,1c-1.51.34-3,.71-4.52,1.07-.75.18-1,.47-.79,1.24.22,1,.51,1.89.78,2.84.21.78.43,1.55.65,2.33.38,0,.63,0,.87,0,1.17-.13,1.38,0,1.64,1.23.17.8.4,1.58.6,2.38s.39,1.56.59,2.39l-1.87.87a6.19,6.19,0,0,0,.23,1.26c.29.74.75,1.43,1,2.18.41,1.21.7,2.45,1,3.68l.39,1.38,1.18-.59c1,.78,1.9.31,2.8-.42a5,5,0,0,1,1.72-.88c4.67-1.36,9.36-2.68,14-4A5.65,5.65,0,0,0,219.07,209.21ZM188,244.44c.7-.3.46-.81.47-1.23,0-1.58-.22-3.19.72-4.65.15-.23.05-.62,0-.94,0-.56-.28-1.2-.09-1.66.56-1.34-.23-2.62.16-4.1-.82.22-1.52.52-2.08-.11l-1.37-1.54a2.62,2.62,0,0,1-.58.42c-1.81.64-3.19,2-4.8,3a1.66,1.66,0,0,0-1,1.5c1.09-.36,1.77.22,2.43,1a28.74,28.74,0,0,1,2.09,2.71c1.24,1.75,2.95,3.16,3.72,5.25A1.84,1.84,0,0,0,188,244.44Zm11.65,1.07c-.23.45-.41.86-.65,1.24a1.9,1.9,0,0,1-3,.57c-.32-.23-.66-.45-1.09-.74a3.22,3.22,0,0,1,.51-1c.38-.34.37-.67,0-.89a1,1,0,0,0-.83.17,3.57,3.57,0,0,0-.81.92.8.8,0,0,0,0,.67,3.6,3.6,0,0,1,.6,2.18,5.17,5.17,0,0,0,.59,1.41c2.71-1.38,5.5-2.28,7.81-4.21-.13-.16-.24-.41-.43-.51C201.37,244.85,200.57,245.75,199.63,245.51ZM215,230.82c-.14.37-.25.68-.35,1a1.61,1.61,0,0,0-.1.36c-.07.62.31,1.21.78,1.17.77-.08,1.54-.18,2.29-.32s.89-.55.57-1.16a4.11,4.11,0,0,0-.34-.51c-.7-.95-.78-1-1.92-.67C215.68,230.75,215.39,230.76,215,230.82Zm-22.17,19.64c0-.5-.43-.54-.78-.63a1.93,1.93,0,0,1-1.43-1.24c-.31-1-1.12-1.19-1.89-1.54a3.78,3.78,0,0,0-.09,2.64A3.58,3.58,0,0,0,192.85,250.46Zm41.23-17-.3-.12a9.19,9.19,0,0,0-1.78,1.11,1.59,1.59,0,0,1-1.21.65,3.29,3.29,0,0,0-.87.23,4.6,4.6,0,0,1,1,1,5.15,5.15,0,0,1,.26,1.44c1.65-.74,2.14-2.15,2.75-3.46A3.13,3.13,0,0,0,234.08,233.45ZM121.6,244.17c-.24-.1-.55-.2-.84-.35-.78-.39-1.19-.3-1.63.41a1.74,1.74,0,0,0-.19,1.57l2,.72Zm187.82-90.11c-1.42,1.26-1.37,1.78,0,2.44.18.09.37.24.55.23a1.14,1.14,0,0,0,.7-.29.64.64,0,0,0-.18-.6A2.08,2.08,0,0,1,309.42,154.06Zm-117,82.63a3.54,3.54,0,0,0-.35,3.33,1.3,1.3,0,0,0,1.16,1.14Zm-1.59,6.45c-.56.81-.68,1.56-.2,2.15a1.58,1.58,0,0,0,2.15.46,10.32,10.32,0,0,1-1.2-1.16A10.7,10.7,0,0,1,190.86,243.14Zm21.83-9c-.6.72-1,1.2-1.38,1.63a2,2,0,0,0-.8,1.7,4.65,4.65,0,0,0,2.43-2.37C213,235,212.82,234.64,212.69,234.15Zm18.48,5.39c-.66,0-1.24-.12-1.45.09a1.92,1.92,0,0,0-.23,1.25.78.78,0,0,0,.48.57,1,1,0,0,0,.78-.35A7.11,7.11,0,0,0,231.17,239.54Zm-40.5-.27c-.79.54-1,1.09-.79,1.64s.56.68,1.25.49C191,240.73,190.85,240.11,190.67,239.27Zm6.13,1.61c-.29.66-.32,1,.13,1.31a1.49,1.49,0,0,0,1.84.06Zm.17,2.77-.26.21,1,2,.7-1.74Zm8.19.45a7,7,0,0,0,1.11-.45c.25-.16.38-.54,0-.65a1.59,1.59,0,0,0-1,.16C204.93,243.3,204.81,243.6,205.16,244.1Zm-3.35-3.48c-1.11-.48-1.23-.46-1.58.27C200.8,241.35,201.29,241.33,201.81,240.62Zm-77.95,4.3c-1.27.67-1.29.73-.56,1.31Zm46.71-11.57c-.57-.69-1-.51-1.26.18Zm54.78,10.3c.47-.21.63-.49.28-.85a.52.52,0,0,0-.51,0C224.83,243.13,225.08,243.39,225.35,243.65Z" transform="translate(-3 -5)"/></svg>