<?xml version="1.0" encoding="utf-8"?>
<!-- Generator: Adobe Illustrator 24.0.1, SVG Export Plug-In . SVG Version: 6.00 Build 0)  -->
<svg version="1.1" id="Layer_1" xmlns="http://www.w3.org/2000/svg" xmlns:xlink="http://www.w3.org/1999/xlink" x="0px" y="0px"
	 viewBox="0 0 791.7 554.3" style="enable-background:new 0 0 791.7 554.3;" xml:space="preserve">
<style type="text/css">
	.st0{opacity:0.39;fill:#515151;}
	.st1{fill:#FFFFFF;stroke:#000000;stroke-width:0.3;stroke-miterlimit:10;}
</style>
<title>toronto-map</title>
<polygon class="st0" points="0,46.9 16.3,89.3 8.1,98.1 13.3,99.9 14.3,99 17.4,102.9 17.4,106.7 20.8,108.5 24.4,107.2 24.4,108.5 
	23.1,114.2 24.4,114.9 22.9,116.3 27.2,120.1 27.2,121.2 28.3,121.8 27.5,123.3 29.5,123.3 28.8,125.8 30.4,126.7 29.1,127.7 
	30.4,128.2 31.3,130 33.7,126.9 36.8,126.9 39.9,126 42.3,126 43.1,126 43.1,124.2 46.3,124.2 47.4,122.1 47.4,120.9 48.8,120.2 
	49.9,120.6 51.7,117.1 51.7,115.2 52.6,114.7 54.3,115.8 56.4,111.1 58.4,110.9 57.5,109.4 56.4,109.4 54.7,110.9 56.8,107 
	58.4,105.7 61.1,103.9 63.4,103.9 65.2,104.6 67.2,105.2 69.1,105.8 71.7,107.6 74.6,107.9 75.3,108.9 76.8,109.2 78.6,108.5 
	79.6,106.3 81.9,106 81.3,107.8 80.9,109.1 81.1,110 82.6,109.7 85.4,114.3 85.4,115.8 86.4,116.9 88.5,116.9 92.6,114.5 
	95.9,112.6 98.6,109.2 99.6,108.2 100.4,108.2 99.3,106.1 97.8,106.8 95.4,110 93.7,110.9 92,110.8 87.9,109.5 87.2,108.2 
	87.2,107.2 85.1,107 84.5,105.2 90.1,104.2 97.1,100.6 100.4,105.5 101.7,107 103.9,104.1 105.7,104.1 105.7,102.9 107.7,99.7 
	110.8,100.9 108.9,105.8 108.6,107.2 107.6,106.6 103.7,108.9 104.7,111.3 103.3,110.7 102.1,113.9 102.4,117.4 103.3,113.5 
	104.9,113.5 105.5,112.5 106.4,112.8 107.4,110 108.8,109.4 109,108.2 110,108.5 110.8,106.3 110.2,105.7 111.4,100.9 112.2,96.5 
	113.1,95.3 115.2,97.2 115.9,96 116.8,95.9 116.8,94.9 116.8,93.6 115.7,93 119.1,91.8 120.5,91.4 127.5,88.4 133.9,77.6 
	140.2,73.4 141.9,74.4 141.9,73.1 143.7,73.2 144.8,71.6 145.9,71.7 145.9,69.8 145.2,68.5 145.9,66.3 148.6,64.1 152,58.7 
	154.5,57.3 157.7,53.8 163.1,49.8 167.3,47.8 171.6,46.9 173.6,44.3 178.1,40.4 181.2,35.6 183.5,30.9 185.6,29.5 183.1,29.5 
	183,28.5 181.8,28.5 181.7,27.1 179.8,26.4 178.6,26.4 178.6,23.8 176.7,22.6 174.5,22.6 173.7,20.5 172.2,19.3 166.4,0 "/>
<polygon class="st1" points="1.9,46.5 18,88.4 10,97.1 15,98.8 16.1,97.9 19.1,101.8 19.1,105.5 22.5,107.3 26,106.1 26,107.3 
	24.8,113 26,113.7 24.6,115.1 28.8,118.8 28.8,119.9 29.9,120.5 29.1,122 31.1,122 30.4,124.5 32,125.3 30.7,126.4 32,126.8 
	32.8,128.6 35.2,125.5 38.3,125.5 41.3,124.6 43.7,124.6 44.5,124.6 44.5,122.8 47.7,122.8 48.8,120.8 48.8,119.6 50.2,118.9 
	51.2,119.3 53,115.9 53,114 53.9,113.5 55.6,114.6 57.6,110 59.6,109.7 58.8,108.2 57.6,108.2 55.9,109.7 58.1,105.8 59.6,104.5 
	62.3,102.8 64.6,102.8 66.3,103.5 68.3,104.1 70.2,104.7 72.8,106.4 75.6,106.8 76.3,107.7 77.8,108.1 79.5,107.4 80.6,105.1 
	82.8,104.9 82.2,106.7 81.9,108 82,108.8 83.5,108.6 86.3,113 86.3,114.6 87.3,115.6 89.3,115.6 93.4,113.3 96.6,111.4 99.3,108.1 
	100.3,107 101.1,107 100.1,105 98.5,105.7 96.2,108.8 94.5,109.7 92.8,109.6 88.7,108.3 88,107 88,106.1 86,105.8 85.4,104.1 
	91,103.1 97.8,99.6 101.1,104.4 102.4,105.8 104.5,103 106.3,103 106.3,101.8 108.3,98.6 111.4,99.8 109.5,104.7 109.3,106.1 
	108.2,105.5 104.4,107.7 105.4,110.1 103.9,109.5 102.8,112.7 103.1,116.1 103.9,112.3 105.6,112.3 106.2,111.3 107,111.6 
	108.1,108.8 109.4,108.2 109.6,107 110.5,107.4 111.4,105.1 110.8,104.5 112,99.8 112.8,95.5 113.6,94.3 115.7,96.2 116.4,95 
	117.3,94.9 117.3,93.9 117.3,92.6 116.2,92 119.6,90.9 120.9,90.5 127.9,87.5 134.3,76.8 140.4,72.7 142.2,73.6 142.2,72.3 
	143.9,72.5 145,70.9 146,71.1 146,69.2 145.3,67.9 146,65.6 148.8,63.5 152.1,58.2 154.5,56.8 157.7,53.4 163,49.4 167.2,47.3 
	171.4,46.5 173.4,43.9 177.9,40 181,35.3 183.2,30.7 185.3,29.3 182.8,29.3 182.7,28.4 181.5,28.4 181.4,26.9 179.5,26.2 
	178.4,26.2 178.4,23.6 176.5,22.5 174.3,22.5 173.5,20.5 172,19.3 166.3,0.2 "/>
</svg>
